<?xml version="1.0" encoding="utf-8"?>
<!-- Generator: Adobe Illustrator 24.1.0, SVG Export Plug-In . SVG Version: 6.00 Build 0)  -->
<svg version="1.1" xmlns="http://www.w3.org/2000/svg" xmlns:xlink="http://www.w3.org/1999/xlink" x="0px" y="0px"
	 viewBox="0 0 1920 880" style="enable-background:new 0 0 1920 880;" xml:space="preserve">
<style type="text/css">
	.st0{opacity:0.36;}
	.st1{fill:#D4C4F7;}
	.st2{fill:#B0C6F8;}
	.st3{fill:none;stroke:#CEB4D6;stroke-width:9;stroke-miterlimit:10;}
	.st4{opacity:0.58;}
	.st5{fill:#A7D5DF;}
	.st6{fill:#D0B1D5;}
	.st7{opacity:0.49;}
	.st8{fill:none;stroke:#B2C5F8;stroke-width:7;stroke-miterlimit:10;}
	.st9{opacity:0.22;}
	.st10{opacity:0.78;}
	.st11{fill:#A6D6DF;}
	.st12{opacity:0.5;}
	.st13{opacity:0.63;}
	.st14{opacity:0.39;}
	.st15{fill:#A9D4DF;}
	.st16{fill:#D0B3D6;}
	.st17{opacity:0.53;}
	.st18{fill:#AECEDC;}
	.st19{opacity:0.61;}
</style>
<g id="Layer_3">
	<g class="st0">
		<g>
			<path class="st1" d="M1275.78,735.74c2.49-10.13,4.13-20.87,2.97-31.29c-1.15-10.38-2.3-20.55-6.04-30.31
				c-5.8-15.15-13.55-29.05-19.87-43.89c2.02,4.78,4.03,9.56,6.05,14.33c-2.4-5.89-4.31-11.86-5.26-18.17
				c0.71,5.32,1.43,10.63,2.14,15.95c-0.45-3.89-0.49-7.63,0.03-11.52c-0.71,5.32-1.43,10.63-2.14,15.95
				c0.51-2.76,1.26-5.33,2.33-7.93c-2.02,4.78-4.03,9.56-6.05,14.33c1.84-3.87,4.29-7.33,6.49-11c2.44-4.08,4.08-8.46,5.93-12.84
				c1.75-4.15,3.51-7.68,4.36-11.99c3.01-15.19,2.69-25.29,0.11-40.48c-0.32-1.91-0.77-3.72-1.39-5.55
				c-2.15-6.26-4.72-13.07-8.17-18.83c-6.38-10.67-15.48-20.81-26.45-26.91c-4.29-2.39-10.91-5.26-15.66-6.59
				c-0.93-0.26-1.83-0.38-2.78-0.55c-5.39-0.95-11.9-2.2-17.38-2.18c-5.47,0.02-12.04,1.28-17.4,2.25
				c-2.03,0.36-3.89,0.87-5.82,1.59c-6.43,2.37-13.2,4.94-19.13,8.51c-3.99,2.41-7.69,5.18-11.92,7.21
				c4.78-2.02,9.56-4.03,14.33-6.05c-2.01,0.82-3.92,1.39-6.07,1.7c5.32-0.71,10.63-1.43,15.95-2.14c-0.94,0.11-1.88,0.1-2.82-0.03
				c5.32,0.71,10.63,1.43,15.95,2.14c-0.83-0.13-1.62-0.36-2.39-0.68c4.78,2.02,9.56,4.03,14.33,6.05
				c-0.78-0.33-1.52-0.74-2.22-1.23c4.05,3.13,8.1,6.25,12.14,9.38c-1.06-0.82-1.9-1.62-2.77-2.63c3.13,4.05,6.25,8.1,9.38,12.14
				c-0.52-0.66-0.96-1.36-1.32-2.11c2.02,4.78,4.03,9.56,6.05,14.33c-0.35-0.72-0.61-1.47-0.77-2.26
				c0.71,5.32,1.43,10.63,2.14,15.95c-0.16-0.76-0.2-1.53-0.12-2.3c-0.71,5.32-1.43,10.63-2.14,15.95c0.08-0.78,0.3-1.52,0.65-2.22
				c-2.02,4.78-4.03,9.56-6.05,14.33c0.21-0.35,0.43-0.7,0.64-1.05c-37.27-10.09-74.54-20.19-111.81-30.28
				c-0.05,0.48-0.11,0.97-0.16,1.45c0.71-5.32,1.43-10.63,2.14-15.95c-0.39,2.4-1,4.65-1.86,6.92c2.02-4.78,4.03-9.56,6.05-14.33
				c-1.15,2.66-2.55,5.08-4.25,7.44c3.13-4.05,6.25-8.1,9.38-12.14c-2.1,2.67-4.41,4.99-7.07,7.11c4.05-3.13,8.1-6.25,12.14-9.38
				c-2.8,2.08-5.69,3.73-8.87,5.14c4.78-2.02,9.56-4.03,14.33-6.05c-4.36,1.73-8.78,2.84-13.41,3.53
				c5.32-0.71,10.63-1.43,15.95-2.14c-7.79,0.95-15.72,0.86-23.51-0.12c5.32,0.71,10.63,1.43,15.95,2.14
				c-2.89-0.45-5.63-1.11-8.34-2.2c4.78,2.02,9.56,4.03,14.33,6.05c-1.3-0.63-2.45-1.29-3.64-2.11c4.05,3.13,8.1,6.25,12.14,9.38
				c-1.15-0.95-2.07-1.86-3.02-3.01c3.13,4.05,6.25,8.1,9.38,12.14c-0.45-0.6-0.82-1.25-1.12-1.94c2.02,4.78,4.03,9.56,6.05,14.33
				c-0.42-1.12-0.68-2.12-0.88-3.31c0.71,5.32,1.43,10.63,2.14,15.95c-0.09-1.2-0.08-2.27,0.03-3.46
				c-0.71,5.32-1.43,10.63-2.14,15.95c0.21-1.15,0.47-2.16,0.88-3.26c-2.02,4.78-4.03,9.56-6.05,14.33
				c0.28-0.66,0.62-1.29,1.02-1.88c-3.13,4.05-6.25,8.1-9.38,12.14c0.39-0.56,0.84-1.07,1.35-1.52c-4.05,3.13-8.1,6.25-12.14,9.38
				c0.5-0.44,1.05-0.79,1.66-1.06c-4.78,2.02-9.56,4.03-14.33,6.05c0.62-0.27,1.27-0.43,1.95-0.49
				c-15.41-2.02-30.82-4.03-46.23-6.05c0.33,0.18,0.66,0.36,0.99,0.54c-7.18-7.18-14.35-14.35-21.53-21.53
				c12.2,18.46,28.15,31.35,49.34,38.19c14.97,4.83,35.16,5.28,50.06-0.14c-5.32,0.71-10.63,1.43-15.95,2.14
				c0.32,0.02,0.65,0.03,0.97,0.05c-14.14-5.86-28.28-11.72-42.43-17.57c0.19,0.24,0.37,0.48,0.56,0.71
				c-5.14-19.46-10.29-38.92-15.43-58.38c-0.06,0.32-0.12,0.63-0.19,0.95c2.02-4.78,4.03-9.56,6.05-14.33
				c-6.53,8.98-13.07,17.96-19.6,26.95c-2.84,3.9-5.79,7.75-8.53,11.72c-5.49,7.95-6.21,14.06-7.37,22.65
				c-1.17,8.73-1.01,16.38,0.99,25.14c2.22,9.73,9.06,20.18,16,27.37c10.32,10.68,22.96,15.12,36.55,19.93
				c-4.78-2.02-9.56-4.03-14.33-6.05c1.08,0.46,1.97,0.93,2.93,1.6c-4.05-3.13-8.1-6.25-12.14-9.38c0.27,0.25,0.53,0.5,0.8,0.74
				c-3.13-4.05-6.25-8.1-9.38-12.14c0.58,0.63,1.02,1.36,1.32,2.17c-2.02-4.78-4.03-9.56-6.05-14.33c0.33,0.92,0.53,1.87,0.6,2.85
				c-0.71-5.32-1.43-10.63-2.14-15.95c0.1,2.12,0.03,4.18-0.21,6.29c0.71-5.32,1.43-10.63,2.14-15.95
				c-0.53,3.57-1.51,6.96-2.86,10.3c2.02-4.78,4.03-9.56,6.05-14.33c-6.06,14.05-17.24,24.9-24.61,38.17
				c-8.4,15.13-13.11,30.55-13.89,47.83c-0.04,0.78-0.06,1.55-0.05,2.33c0.03,5.24,0.83,12.69,2.22,17.72
				c1.14,4.14,4.4,11.34,6.44,15.1c6.18,11.39,17.06,19.64,28.69,24.55c9.28,3.92,5.79,2.99,15.92,4.35
				c7.98,1.79,15.95,1.43,23.93-1.07c4.78-2.02,9.56-4.03,14.33-6.05c5.85-3.28,10.82-8.23,15.97-12.52
				c-4.05,3.13-8.1,6.25-12.14,9.38c2.19-1.66,4.47-3.02,6.97-4.17c-4.78,2.02-9.56,4.03-14.33,6.05c2.97-1.22,5.93-2.02,9.1-2.49
				c-5.32,0.71-10.63,1.43-15.95,2.14c2.71-0.29,5.35-0.3,8.07-0.02c-5.32-0.71-10.63-1.43-15.95-2.14c2.7,0.38,5.25,1.03,7.8,1.98
				c-4.78-2.02-9.56-4.03-14.33-6.05c2.54,1.09,4.83,2.4,7.05,4.05c-4.05-3.13-8.1-6.25-12.14-9.38c2.47,2.04,4.6,4.27,6.57,6.8
				c-3.13-4.05-6.25-8.1-9.38-12.14c2.79,3.88,4.72,7.97,6.7,12.3c1.88,4.12,4.64,7.18,7.46,10.83c5.63,7.28,11.92,13.08,20,17.81
				c4.03,2.35,11.03,5.25,15.57,6.42c5.12,1.31,12.56,2.33,17.87,2.27c12.05-0.13,22.84-3.48,33.48-8.87
				c0.82-0.42,1.6-0.82,2.39-1.3c4.49-2.7,9.98-7,13.71-10.72c2.18-2.18,4.49-5.64,6.03-7.64c2.66-3.44,4.41-5.31,6.16-8.69
				c17.33-33.35,8-69.41,3.14-104.5c0.71,5.32,1.43,10.63,2.14,15.95c-1.2-9.07-1.94-18.13-1.27-27.27
				c-2.73,10.09-5.46,20.19-8.19,30.28c0.14-0.27,0.28-0.53,0.42-0.8c-11.95,9.19-23.91,18.38-35.86,27.57
				c0.26-0.07,0.53-0.15,0.79-0.22c-15.41-2.02-30.82-4.03-46.23-6.05c0.25,0.11,0.5,0.22,0.75,0.33
				c-9.19-11.95-18.38-23.91-27.57-35.86c0.1,0.28,0.21,0.57,0.31,0.85c-0.71-5.32-1.43-10.63-2.14-15.95
				c-0.47,10.32-0.94,20.63-1.4,30.95c-0.95,20.87,4.85,43.56,20.33,58.5c17.67,17.05,42.25,24.47,66.29,18.35
				c15.28-3.89,26.56-11.99,38.31-22.04c-8.83,5.14-17.65,10.29-26.48,15.43c0.25-0.1,0.5-0.19,0.75-0.29c-10.63,0-21.27,0-31.9,0
				c0.25,0.09,0.51,0.19,0.76,0.28c-8.83-5.14-17.65-10.29-26.48-15.43c0.7,0.6,1.34,1.27,1.91,1.99c-3.13-4.05-6.25-8.1-9.38-12.14
				c0.84,1.18,1.51,2.29,2.15,3.59c-2.02-4.78-4.03-9.56-6.05-14.33c1.14,2.75,1.81,5.53,2.25,8.47
				c-0.71-5.32-1.43-10.63-2.14-15.95c1.53,13.24,0.42,27.15,5.28,39.8c2.31,6.02,4.46,12.51,8.2,17.83
				c7.1,10.1,13.17,16.23,23.32,23.28c5.21,3.62,11.58,5.93,17.5,8.01c6.3,2.22,13.46,3.33,19.97,3.18
				c6.16-0.14,13.36-0.82,19.29-2.53c9.14-2.63,15.66-6.51,22.88-12.08c7.14-5.51,12.58-11.55,17.44-19.34
				c2.15-3.44,5.41-11.67,6.59-15.54c1.02-3.34,1.07-5.89,1.61-9.91c0.57-4.22,1.56-8.59,1.2-12.89
				c-0.55-6.75-1.52-13.63-2.78-20.28c-0.91-4.82-1.9-9.6-2.59-14.46c0.71,5.32,1.43,10.63,2.14,15.95
				c-1.38-10.69-1.69-21.4-0.41-32.12c-0.71,5.32-1.43,10.63-2.14,15.95c1.03-7.5,2.78-14.83,5.62-21.86
				c-2.02,4.78-4.03,9.56-6.05,14.33c1.27-2.88,2.71-5.54,4.6-8.07c-3.13,4.05-6.25,8.1-9.38,12.14c1.01-1.18,2-2.2,3.18-3.22
				c-4.05,3.13-8.1,6.25-12.14,9.38c1.19-0.88,2.26-1.54,3.6-2.17c-4.78,2.02-9.56,4.03-14.33,6.05c1.33-0.48,2.52-0.79,3.92-1.01
				c-5.32,0.71-10.63,1.43-15.95,2.14c0.89-0.1,1.78-0.11,2.67-0.03c-5.32-0.71-10.63-1.43-15.95-2.14c1.38,0.2,2.48,0.48,3.78,0.99
				c-4.78-2.02-9.56-4.03-14.33-6.05c0.79,0.37,1.53,0.83,2.2,1.39c-4.05-3.13-8.1-6.25-12.14-9.38c0.32,0.31,0.64,0.62,0.96,0.92
				c-5.14-8.83-10.29-17.65-15.43-26.48c0.08,0.35,0.16,0.71,0.23,1.06c0-10.63,0-21.27,0-31.9c-0.24,0.8-0.52,1.58-0.85,2.35
				c2.02-4.78,4.03-9.56,6.05-14.33c-1.45,3.17-3.38,5.97-5.49,8.73c3.13-4.05,6.25-8.1,9.38-12.14
				c-5.63,7.21-11.94,14.05-16.67,21.89c-7.21,11.95-10.78,25.46-11.06,39.37c-0.14,6.87,0.98,14.16,3.26,20.72
				c3.85,11.06,8.98,21.54,17.65,29.76c10.51,9.96,23.22,17.39,37.39,20.79c-4.78-2.02-9.56-4.03-14.33-6.05
				c0.23,0.14,0.46,0.29,0.68,0.43c-9.19-11.95-18.38-23.91-27.57-35.86c0.07,0.24,0.14,0.47,0.21,0.71c0-10.63,0-21.27,0-31.9
				c-0.08,0.23-0.17,0.46-0.25,0.69c9.19-11.95,18.38-23.91,27.57-35.86c-0.23,0.13-0.47,0.26-0.7,0.4
				c4.78-2.02,9.56-4.03,14.33-6.05c-4.93,0.81-9.86,1.62-14.78,2.43c-7.81,1.86-14.61,5.44-20.4,10.74
				c-6.53,4.23-11.68,9.84-15.45,16.83c-7.53,12.86-10.71,31.82-6.05,46.23c4.7,14.52,13.7,28.53,27.57,35.86
				c4.78,2.02,9.56,4.03,14.33,6.05c10.63,2.86,21.27,2.86,31.9,0c4.75-0.78,9.57-1.37,14.28-2.35c0.17-0.03,0.34-0.04,0.5-0.08
				c4.78-2.02,9.56-4.03,14.33-6.05c2.48-1.36,4.74-3.05,6.77-5.09c10.32-7.97,17.87-18.37,21.5-31.17
				c2.88-10.17,2.56-15.37,1.32-24.62c-1.25-9.34-1.38-13.78-7.33-23.01c-5.65-8.77-12.77-16.41-21.87-21.74
				c-7.54-4.42-13.04-5.17-20.07-7.94c4.78,2.02,9.56,4.03,14.33,6.05c-1.26-0.59-2.38-1.2-3.54-1.96c4.05,3.13,8.1,6.25,12.14,9.38
				c-1.08-0.85-1.94-1.66-2.83-2.71c3.13,4.05,6.25,8.1,9.38,12.14c-0.54-0.71-1-1.47-1.37-2.29c2.02,4.78,4.03,9.56,6.05,14.33
				c-0.48-1.24-0.8-2.32-1.03-3.63c0.71,5.32,1.43,10.63,2.14,15.95c-0.09-1.17-0.08-2.19,0.05-3.35
				c-0.71,5.32-1.43,10.63-2.14,15.95c0.22-1.13,0.5-2.14,0.88-3.22c-2.02,4.78-4.03,9.56-6.05,14.33c1.29-3.02,3.11-5.65,5.09-8.25
				c-3.13,4.05-6.25,8.1-9.38,12.14c6.04-7.74,13.12-15.09,17.81-23.75c5.83-10.76,10.15-22.5,10.15-34.91
				c0-22.38-12.31-42-30.91-53.79c-16.94-10.73-38.31-13.12-57.53-7.84c-11.89,3.27-22.3,9.86-31.35,18.06
				c-5.65,5.12-10.25,11.43-14.32,17.87c-12.08,19.07-16.43,44.49-17.4,66.57c-0.82,18.82,3.19,37.36,6.27,55.82
				c-0.71-5.32-1.43-10.63-2.14-15.95c0.32,2.41,0.43,4.68,0.12,7.09c0.71-5.32,1.43-10.63,2.14-15.95
				c-0.15,0.88-0.41,1.74-0.77,2.56c2.02-4.78,4.03-9.56,6.05-14.33c-0.37,0.82-0.85,1.58-1.44,2.25c3.13-4.05,6.25-8.1,9.38-12.14
				c-0.29,0.28-0.57,0.56-0.86,0.84c4.05-3.13,8.1-6.25,12.14-9.38c-0.59,0.49-1.23,0.88-1.94,1.17c4.78-2.02,9.56-4.03,14.33-6.05
				c-0.7,0.28-1.42,0.46-2.16,0.54c5.32-0.71,10.63-1.43,15.95-2.14c-0.76,0.08-1.52,0.07-2.28-0.03
				c5.32,0.71,10.63,1.43,15.95,2.14c-1.24-0.23-2.27-0.53-3.44-0.99c4.78,2.02,9.56,4.03,14.33,6.05
				c-1.16-0.58-2.13-1.19-3.17-1.97c4.05,3.13,8.1,6.25,12.14,9.38c-0.65-0.53-1.25-1.12-1.79-1.76c3.13,4.05,6.25,8.1,9.38,12.14
				c-0.89-1.15-1.5-2.19-2.15-3.5c2.02,4.78,4.03,9.56,6.05,14.33c-1.04-2.56-1.66-5.09-2.07-7.81c0.71,5.32,1.43,10.63,2.14,15.95
				c-1.51-13.45-0.43-27.66-5.46-40.46c-2.37-6.03-4.49-12.53-8.2-17.92c-6.42-9.34-13.5-17.7-23.43-23.52
				c-3.6-2.11-11.13-5.09-15.09-6.33c-9.57-3-22.46-2.61-32.28,0.14c-7.64,2.14-14.6,6.11-20.78,10.88
				c-2.9,2.24-5.65,4.42-8.48,6.68c4.05-3.13,8.1-6.25,12.14-9.38c-1.7,1.25-3.42,2.35-5.3,3.31c4.78-2.02,9.56-4.03,14.33-6.05
				c-1.4,0.59-2.64,1-4.13,1.31c5.32-0.71,10.63-1.43,15.95-2.14c-0.9,0.14-1.8,0.15-2.7,0.04c5.32,0.71,10.63,1.43,15.95,2.14
				c-0.9-0.12-1.76-0.39-2.57-0.8c4.78,2.02,9.56,4.03,14.33,6.05c-0.41-0.26-0.81-0.51-1.22-0.77c4.05,3.13,8.1,6.25,12.14,9.38
				c-0.71-0.54-1.32-1.16-1.84-1.89c3.13,4.05,6.25,8.1,9.38,12.14c-0.51-0.72-0.93-1.5-1.25-2.32c2.02,4.78,4.03,9.56,6.05,14.33
				c-0.46-1.36-0.76-2.62-1-4.04c0.71,5.32,1.43,10.63,2.14,15.95c-1.34-12.86,0.93-26.35,1.28-39.23c0.16-6.03,1.34-4.11-2.1-16.87
				c-5.76-21.34-22.43-36.45-42.97-43.09c-25.72-8.32-55.63,5.69-68.76,28.2c-6.79,11.64-8.67,24.7-8.7,37.88
				c-0.04,20.16,4.57,40.16,7.29,60.08c-0.71-5.32-1.43-10.63-2.14-15.95c1.15,8.87,2.05,17.9,1.2,26.84
				c0.71-5.32,1.43-10.63,2.14-15.95c-0.35,2.58-0.9,4.96-1.87,7.37c2.02-4.78,4.03-9.56,6.05-14.33c-0.41,0.92-0.9,1.79-1.47,2.62
				c3.13-4.05,6.25-8.1,9.38-12.14c-0.91,1.15-1.76,2-2.91,2.91c4.05-3.13,8.1-6.25,12.14-9.38c-0.74,0.53-1.54,0.96-2.39,1.3
				c4.78-2.02,9.56-4.03,14.33-6.05c-0.82,0.33-1.67,0.55-2.55,0.65c5.32-0.71,10.63-1.43,15.95-2.14c-0.86,0.1-1.71,0.07-2.56-0.1
				c5.32,0.71,10.63,1.43,15.95,2.14c-0.41-0.12-0.82-0.25-1.23-0.37c4.78,2.02,9.56,4.03,14.33,6.05c-0.83-0.34-1.57-0.8-2.24-1.4
				c4.05,3.13,8.1,6.25,12.14,9.38c-0.31-0.32-0.62-0.63-0.93-0.95c3.13,4.05,6.25,8.1,9.38,12.14c-2.35-3.11-3.5-6.81-5.26-10.25
				c-3.74-7.34-9.35-14.09-14.57-20.21c-10.65-12.49-26.07-21.23-41.65-25.92c-31.66-9.53-67.7,0.61-90.81,23.79
				c4.05-3.13,8.1-6.25,12.14-9.38c-0.27,0.12-0.53,0.24-0.8,0.36c15.41-2.02,30.82-4.03,46.23-6.05c-0.26-0.09-0.52-0.17-0.78-0.26
				c11.95,9.19,23.91,18.38,35.86,27.57c-0.13-0.26-0.26-0.51-0.39-0.77c2.73,10.09,5.46,20.19,8.19,30.28
				c-0.11-1.96-0.07-3.87,0.12-5.82c-0.71,5.32-1.43,10.63-2.14,15.95c0.47-3.46,1.4-6.73,2.69-9.97
				c-2.02,4.78-4.03,9.56-6.05,14.33c6.33-14.75,18.46-25.95,25.69-40.18c3.84-7.55,7.59-15.58,9.77-23.81
				c1.09-4.11,1.44-8.48,2-12.64c0.61-4.56,1.45-8.95,1.32-13.53c-0.7-23.99-12.02-45.33-32.47-58.3c-7.3-4.63-15.86-6.81-23.9-9.78
				c4.78,2.02,9.56,4.03,14.33,6.05c-1.03-0.47-1.84-0.92-2.73-1.61c4.05,3.13,8.1,6.25,12.14,9.38c-0.23-0.25-0.47-0.5-0.7-0.75
				c3.13,4.05,6.25,8.1,9.38,12.14c-0.19-0.3-0.38-0.59-0.57-0.89c2.73,10.09,5.46,20.19,8.19,30.28c0.03-0.4,0.06-0.81,0.08-1.21
				c-2.73,10.09-5.46,20.19-8.19,30.28c6.26-8.6,12.52-17.21,18.78-25.81c2.99-4.1,6.05-8.16,8.96-12.32
				c0.2-0.29,0.42-0.56,0.62-0.86c4.44-6.57,5.04-9.79,6.25-15.3c0.71-5.32,1.43-10.63,2.14-15.95c0.31-8.26-1.41-15.97-5.17-23.12
				c-3.37-8-6.23-13.34-12.97-20.02c-10.66-10.58-27.25-17.98-42.43-17.57c-7.53,0.2-14.7,2.12-22.01,3.48
				c5.32-0.71,10.63-1.43,15.95-2.14c-2.67,0.35-5.24,0.35-7.91,0.03c5.32,0.71,10.63,1.43,15.95,2.14
				c-2.22-0.38-4.31-0.95-6.41-1.75c4.78,2.02,9.56,4.03,14.33,6.05c-2.07-0.9-3.97-1.96-5.82-3.25c4.05,3.13,8.1,6.25,12.14,9.38
				c-1.8-1.4-3.37-2.91-4.84-4.66c3.13,4.05,6.25,8.1,9.38,12.14c-0.57-0.72-1.09-1.46-1.57-2.24c-3.77-6.99-8.92-12.6-15.45-16.83
				c-10.7-8.27-23.31-14.05-37.34-13.43c-12.21,0.55-23.35,3.32-33.9,9.73c-21.22,12.91-32.72,36.35-33.09,60.77
				c-0.38,25.24,14.09,47.87,34.83,61.22c14.04,9.03,28.93,11.34,45.15,12.83c23.45,2.16,49.39-2.29,69.66-14.64
				c13.73-8.37,24.18-18.86,32.96-32.23c9.23-14.04,11.82-28.63,13.62-44.93c-0.71-5.32-1.43-10.63-2.14-15.95
				c-1.86-7.81-5.44-14.61-10.74-20.4c-7.66-9.91-18.6-18.64-31.17-21.5c-10.55-2.4-21.35-2.4-31.9,0
				c-14.62,3.33-28.19,15.12-35.86,27.57c-2.78,4.52-5.53,11.41-7.12,16.47c-1.77,5.62-2.55,11.79-2.38,17.65
				c0.34,11.65,2.95,24.16,9.1,34.27c10.11,16.63,24.71,28.14,43.36,33.96c12.34,3.85,23.63,2.42,35.93,0.29
				c7.6-1.31,15.28-4.93,21.86-8.45c5.22-2.79,9.82-6.57,15.25-8.97c-4.78,2.02-9.56,4.03-14.33,6.05c1.92-0.73,3.79-1.26,5.82-1.59
				c-5.32,0.71-10.63,1.43-15.95,2.14c0.96-0.12,1.92-0.14,2.88-0.07c-5.32-0.71-10.63-1.43-15.95-2.14
				c1.52,0.21,2.69,0.51,4.11,1.09c-4.78-2.02-9.56-4.03-14.33-6.05c0.43,0.24,0.85,0.49,1.28,0.73c-4.05-3.13-8.1-6.25-12.14-9.38
				c0.78,0.65,1.43,1.53,2.07,2.31c-3.13-4.05-6.25-8.1-9.38-12.14c1.41,1.95,2.52,3.95,3.46,6.17c-2.02-4.78-4.03-9.56-6.05-14.33
				c0.83,2.28,1.39,4.54,1.74,6.94c-0.71-5.32-1.43-10.63-2.14-15.95c0.22,2.42,0.2,4.75-0.09,7.16c0.71-5.32,1.43-10.63,2.14-15.95
				c-0.33,1.91-0.8,3.7-1.46,5.52c2.02-4.78,4.03-9.56,6.05-14.33c-1.48,3.46-3.46,6.56-5.47,9.73
				c-4.51,7.11-7.86,14.87-10.62,22.84c-2.79,8.06-3.64,17.13-4.19,25.58c-0.55,8.49,1.26,17.9,2.72,25.88
				c3.81,20.73,15.79,38.74,23.9,57.9c-2.02-4.78-4.03-9.56-6.05-14.33c2.21,5.47,3.98,11.01,4.89,16.85
				c-0.71-5.32-1.43-10.63-2.14-15.95c0.41,3.44,0.49,6.78,0.16,10.24c0.71-5.32,1.43-10.63,2.14-15.95
				c-0.25,1.74-0.57,3.4-0.99,5.1c-3.78,15.37-2.03,32.43,6.05,46.23c7.28,12.45,21.55,24.32,35.86,27.57
				c15.36,3.5,32.6,2.74,46.23-6.05C1261.15,763.25,1272.01,751.07,1275.78,735.74L1275.78,735.74z"/>
		</g>
	</g>
	<g>
		<g>
			<g>
				<polyline class="st2" points="1186.22,664.79 1175.21,684.75 1167.21,699.12 1167.21,699.12 1167.21,699.12 				"/>
			</g>
			<g>
				<path class="st2" d="M1090.65,711.55l14.47,15.72c0.02,0.03,0.04,0.05,0.07,0.08c0.56,0.73,9.08,11.87,13.57,12.54
					c0.26,0.04,0.51,0.13,0.7,0.31c2.91,2.86,27.04,26.36,31.74,23.89l6.37,0.18"/>
			</g>
			<g>
				<path class="st2" d="M1191.22,725.74l-14.37,15.09c-0.09,0.1-0.2,0.17-0.32,0.23l-10.83,5.4"/>
			</g>
			<g>
				<path class="st2" d="M1103.66,588.85l29.47,20.99c0.03,0.02,0.06,0.05,0.09,0.07l21.28,18.71c0.13,0.11,0.28,0.19,0.44,0.24
					l10.76,3.08"/>
			</g>
			<g>
				<path class="st2" d="M1215.49,600.15l-14.38,31.26c-0.08,0.18-0.21,0.33-0.37,0.45l-12.22,8.73c-0.03,0.02-0.05,0.04-0.07,0.06
					l-15.34,12.99c-0.09,0.08-0.19,0.14-0.3,0.18l-5.59,2.34"/>
			</g>
			<g>
				<path class="st2" d="M1095.41,631.68l33.84-6.18c0.42-0.08,0.76-0.38,0.89-0.8l4.31-14.57"/>
			</g>
			<g>
				<path class="st2" d="M1139.44,564.94l17.88,37.55c0.09,0.19,0.13,0.39,0.1,0.6l-2.47,24.91"/>
			</g>
			<g>
				<path class="st2" d="M1230,660.06l-21.88,30.81c-0.09,0.13-0.2,0.23-0.33,0.31l-39.33,24.05"/>
			</g>
			<g>
				<path class="st2" d="M1243.51,711.55l-39.43-12.58c-0.06-0.02-0.13-0.05-0.19-0.08l-4.66-2.48"/>
			</g>
			<g>
				<polyline class="st2" points="1114.92,670.04 1114.92,715.23 1114.92,740.98 				"/>
			</g>
			<g>
				<path class="st2" d="M1123.93,682.13l10.24,13.83c0.17,0.23,0.42,0.39,0.7,0.44l13.57,2.55"/>
			</g>
			<g>
				<path class="st2" d="M1176.09,585.8c-6,30.04-12,60.09-18,90.13c-2.27,11.38-4.55,22.87-4.27,34.47
					c0.3,12.43,3.53,24.59,5.03,36.94c7.47,61.58-27.88,127.08-3.1,183.95"/>
			</g>
		</g>
	</g>
</g>
<g id="Layer_4">
	<polyline class="st3" points="942.5,490 942.5,514 951.5,541 951.5,577 956.5,589 949.5,628 942.5,653 946.5,678 942.5,732
		939.5,778 939.5,900 	"/>
	<path class="st3" d="M954.5,721c0,0,8,0,6,16s-4,21-4,21l-14,7.59"/>
	<polyline class="st3" points="906.5,532 948.5,598 954.45,600.45 	"/>
	<polyline class="st3" points="982.5,604 965.5,638 948.5,666 	"/>
	<polyline class="st3" points="916.5,558 921.5,610 930.5,647 942.5,653 	"/>
	<polyline class="st3" points="970.5,515 970.5,538 965.5,558 956.5,581.4 956.5,581.4 	"/>
	<polyline class="st3" points="923.5,711 923.5,727 939.5,753.21 	"/>
	<g class="st4">
		<g>
			<path class="st5" d="M1006.99,444.73c-1.16-4.03-2.05-8.07-2.67-12.21c0.71,5.32,1.43,10.63,2.14,15.95
				c-0.61-4.75-0.86-9.48-0.74-14.27c-40,0-80,0-120,0c0.59,50,8.87,100.13,2.45,150.05c0.71-5.32,1.43-10.63,2.14-15.95
				c-1.51,11.08-3.75,21.99-6.9,32.72c39.29,5.32,78.57,10.63,117.86,15.95c0.14-12.89-0.41-25.77-1.79-38.59
				c-0.81-7.55-1.64-15.16-2.97-22.63c-0.82-4.64-2.53-8.23-4.43-12.72c-3.82-9.06-7.75-16.1-14.82-23.48
				c-4.83-5.05-11.05-9.2-16.92-13.05c4.05,3.13,8.1,6.25,12.14,9.38c-0.75-0.51-1.41-1.11-1.98-1.81c3.13,4.05,6.25,8.1,9.38,12.14
				c-0.57-0.71-1.03-1.48-1.4-2.31c2.02,4.78,4.03,9.56,6.05,14.33c-0.69-1.78-1.1-3.52-1.4-5.4c0.71,5.32,1.43,10.63,2.14,15.95
				c-0.41-3.42-0.71-6.81-0.44-10.26c-0.71,5.32-1.43,10.63-2.14,15.95c0.32-1.67,0.68-2.98,1.34-4.54
				c-2.02,4.78-4.03,9.56-6.05,14.33c0.69-1.31,1.42-2.47,2.28-3.68c-3.13,4.05-6.25,8.1-9.38,12.14c2.49-3.13,5.38-5.91,8-8.92
				c8.94-10.26,16.19-20.88,19.68-34.3c4.71-18.11,2.61-36.67-6.33-53.05c-1.67-3.07-4.11-5.61-5.68-8.72
				c2.02,4.78,4.03,9.56,6.05,14.33c-0.33-0.73-0.51-1.5-0.55-2.3c0.71,5.32,1.43,10.63,2.14,15.95c0.03-0.41,0.06-0.82,0.09-1.23
				c-30.09,17.27-60.19,34.54-90.28,51.81c16.71,8.18,33.99,15.45,51.6,21.47c-4.78-36.55-9.56-73.11-14.33-109.66
				c-9.84,4.53-19.05,11.68-26.4,19.56c-11.35,12.18-17.42,23.49-23.5,38.68c-1.23,3.08-2.27,6.14-2.91,9.41
				c-1.66,8.45-2.92,17.27-3.2,25.9c-0.25,7.74,0.61,15.48,1.31,23.18c1.49,16.26,2.98,32.52,4.48,48.77
				c1.11,12.09,1.41,24.92,4.19,36.69c3.97,16.83,15.51,30.43,29.64,39.72c8.61,5.66,15.3,6.98,24.6,8.23
				c9.27,1.25,16.68,2.18,26.3-1.5c10.16-2.85,18.99-7.99,26.48-15.43c7.44-7.49,12.58-16.31,15.43-26.48
				c0.49-3.58,1.38-6.9,2.76-10.24c-2.02,4.78-4.03,9.56-6.05,14.33c0.48-1.08,1.01-2.14,1.6-3.16
				c7.22-13.39,10.88-31.32,6.05-46.23c-4.09-12.65-10.94-23-21.5-31.17c-10.12-7.82-23.21-13.47-36.35-12.88
				c-5.32,0.71-10.63,1.43-15.95,2.14c-10.16,2.85-18.99,7.99-26.48,15.43c-7.98,6.23-14.49,15.13-18.81,24.28
				c-6.28,13.31-8.99,22.38-10.87,36.34c-1.17,8.71-1.85,16.85-1.61,25.61c0.2,7.38,0.47,14.73-0.31,22.1
				c0.71-5.32,1.43-10.63,2.14-15.95c-0.49,3.64-1.24,7.15-2.38,10.65c38.57,0,77.14,0,115.71,0c-4.2-10.39-7.1-21.13-8.73-32.22
				c0.71,5.32,1.43,10.63,2.14,15.95c-0.98-7.4-0.94-14.83-1.74-22.23c-0.83-7.74-1.35-15.91-3.93-23.37
				c-4.46-12.9-9.53-22.14-19.2-32.04c-10.21-10.45-27.66-18.23-42.43-17.57c-5.32,0.71-10.63,1.43-15.95,2.14
				c-7.81,1.86-14.61,5.44-20.4,10.74c-9.91,7.66-18.64,18.6-21.5,31.17c-3.6,15.82-2.19,31.93,6.05,46.23
				c3.84,6.67,7.27,13.54,10.32,20.61c-2.02-4.78-4.03-9.56-6.05-14.33c6.42,15.32,10.83,31.3,13.15,47.75
				c-0.71-5.32-1.43-10.63-2.14-15.95c0.89,6.79,2,13.94,1.26,20.8c0.71-5.32,1.43-10.63,2.14-15.95c-0.26,1.65-0.62,3.21-1.17,4.79
				c2.02-4.78,4.03-9.56,6.05-14.33c-0.47,1.09-0.95,2.01-1.61,3c3.13-4.05,6.25-8.1,9.38-12.14c-0.42,0.57-0.91,1.07-1.46,1.51
				c4.05-3.13,8.1-6.25,12.14-9.38c-0.54,0.43-1.14,0.76-1.8,1c4.78-2.02,9.56-4.03,14.33-6.05c-0.34,0.09-0.69,0.18-1.03,0.27
				c5.32-0.71,10.63-1.43,15.95-2.14c-0.37,0.03-0.75,0.07-1.12,0.1c-8.26-0.31-15.97,1.41-23.12,5.17
				c-7.44,2.42-13.88,6.56-19.31,12.41c-10.41,10.41-18.24,27.48-17.57,42.43c0.7,15.52,5.79,31.61,17.57,42.43
				c11.12,10.2,26.78,18.99,42.43,17.57c12.4-1.13,22.53-2.68,33.38-8.99c8.04-4.67,13.65-10.41,19.15-17.54
				c5.78-7.48,9.27-14.07,12.35-23.4c1.38-4.18,1.64-8.34,2.24-12.77c2.37-17.65-0.43-35.1-3.59-52.61
				c-4.71-26.13-15.07-51.87-28.27-74.81c-31.41,24.24-62.82,48.47-94.23,72.71c0.67,0.62,1.28,1.31,1.82,2.04
				c-3.13-4.05-6.25-8.1-9.38-12.14c0.77,1.16,1.38,2.26,1.95,3.52c-2.02-4.78-4.03-9.56-6.05-14.33c0.82,2.2,1.34,4.4,1.7,6.72
				c-0.71-5.32-1.43-10.63-2.14-15.95c0.48,3.94,0.53,7.89,0.75,11.84c0.55,9.97,2.05,19.98,3.63,29.81
				c1.63,10.12,4.47,19.96,8.31,29.46c2.02,4.78,4.03,9.56,6.05,14.33c3.77,6.99,8.92,12.6,15.45,16.83
				c10.12,7.82,23.21,13.47,36.35,12.88c10.65-0.48,20.86-3.21,30.28-8.19c13.57-7.17,22.99-21.73,27.57-35.86
				c4.26-13.11,5.3-27.52,5.04-41.28c-0.16-8.38-0.67-16.71,0.34-25.05c-0.71,5.32-1.43,10.63-2.14,15.95
				c0.63-4.37,1.61-8.59,3.19-12.72c-2.02,4.78-4.03,9.56-6.05,14.33c1.31-3.09,2.86-5.88,4.9-8.55c-3.13,4.05-6.25,8.1-9.38,12.14
				c1.55-1.84,3.19-3.43,5.08-4.9c-31.41-24.24-62.82-48.47-94.23-72.71c-4.58,8.48-9.1,18.03-10.42,27.74
				c13.97-13.97,27.94-27.94,41.91-41.91c-0.38,0.15-0.77,0.29-1.15,0.44c5.32-0.71,10.63-1.43,15.95-2.14
				c-0.41,0-0.82-0.01-1.23-0.01c5.32,0.71,10.63,1.43,15.95,2.14c-0.4-0.13-0.8-0.27-1.21-0.4c4.78,2.02,9.56,4.03,14.33,6.05
				c-0.36-0.24-0.72-0.47-1.09-0.71c4.05,3.13,8.1,6.25,12.14,9.38c-0.29-0.32-0.58-0.64-0.87-0.95c3.13,4.05,6.25,8.1,9.38,12.14
				c-0.25-0.46-0.49-0.93-0.74-1.39c2.02,4.78,4.03,9.56,6.05,14.33c-0.37-1-0.62-2.04-0.73-3.1c0.71,5.32,1.43,10.63,2.14,15.95
				c-1.72-16.44-3.04-32.93-4.55-49.4c-1.45-15.8-4.3-32.21-2.53-48.07c-0.71,5.32-1.43,10.63-2.14,15.95
				c0.65-4.51,1.72-8.8,3.49-13c-2.02,4.78-4.03,9.56-6.05,14.33c1.45-3.15,3.17-6.04,5.22-8.83c-3.13,4.05-6.25,8.1-9.38,12.14
				c2.45-3.11,5.17-5.84,8.27-8.31c-4.05,3.13-8.1,6.25-12.14,9.38c2.79-2.07,5.67-3.78,8.82-5.24c4.05-3.13,8.1-6.25,12.14-9.38
				c3.13-4.05,6.25-8.1,9.38-12.14c2.02-4.78,4.03-9.56,6.05-14.33c2.5-7.98,2.86-15.95,1.07-23.93c-0.02-5.42-1.38-10.46-4.1-15.14
				c-1.43-5.08-4-9.49-7.72-13.24c-8.28-10.72-18.19-17.07-31.17-21.5c-6.95-2.37-13.81-4.97-20.58-7.8
				c4.78,2.02,9.56,4.03,14.33,6.05c-5.63-2.39-11.19-4.93-16.69-7.62c-9.36-5.43-19.45-8.16-30.28-8.19
				c-10.83,0.03-20.92,2.76-30.28,8.19c-9.02,5.33-16.19,12.51-21.53,21.53c-5.43,9.36-8.16,19.45-8.19,30.28
				c-0.77,10.83,3.6,26.44,9.55,35.45c1.59,2.4,3.5,4.49,4.78,7.09c-2.02-4.78-4.03-9.56-6.05-14.33c0.4,0.96,0.64,1.97,0.71,3.01
				c-0.71-5.32-1.43-10.63-2.14-15.95c0,0.51,0,1.02-0.01,1.53c0.71-5.32,1.43-10.63,2.14-15.95c-0.24,1.65-0.6,2.99-1.19,4.55
				c2.02-4.78,4.03-9.56,6.05-14.33c-0.98,2.01-2.11,3.79-3.48,5.57c3.13-4.05,6.25-8.1,9.38-12.14
				c-6.23,7.27-12.29,13.4-17.81,21.65c-0.68,1.02-1.28,2-1.86,3.09c-2.39,4.49-5.15,10.76-6.61,15.66
				c-1.09,3.67-1.33,7.31-1.85,11.19c-0.53,3.94-1.3,7.74-1.21,11.69c0.1,4.82,1.01,9.8,1.65,14.52c0.63,4.71,0.92,8.98,2.47,13.37
				c4.07,11.5,8.99,21.12,17.77,29.78c4.84,4.77,10.96,8.44,16.48,12.41c-4.05-3.13-8.1-6.25-12.14-9.38
				c0.72,0.58,1.37,1.24,1.92,1.99c-3.13-4.05-6.25-8.1-9.38-12.14c0.81,1.2,1.4,2.31,1.97,3.65c-2.02-4.78-4.03-9.56-6.05-14.33
				c0.78,2.29,1.26,4.59,1.61,6.98c-0.71-5.32-1.43-10.63-2.14-15.95c1.85,14.54,2.56,29.2,2.4,43.84
				c-0.16,14.62,6.65,32.4,17.57,42.43c4.05,3.13,8.1,6.25,12.14,9.38c6.89,4.38,14.32,6.76,22.31,7.12
				c5.32,1.43,10.63,1.43,15.95,0c7.98-0.36,15.42-2.74,22.31-7.12c13.28-8.56,23.04-20.47,27.57-35.86
				c9.98-33.91,12.32-70.23,11.22-105.43c-0.98-31.13-4.26-62.14-4.63-93.29c-0.18-15.5-6.57-31.42-17.57-42.43
				c-10.41-10.41-27.48-18.24-42.43-17.57c-15.52,0.7-31.61,5.79-42.43,17.57c-10.93,11.9-17.17,26.04-17.57,42.43
				c-0.35,14.17,1.63,28.83,5.56,42.43c4.22,14.62,14.38,28.14,27.57,35.86c12.86,7.53,31.82,10.71,46.23,6.05
				c14.52-4.7,28.53-13.7,35.86-27.57C1008.44,476.78,1011.55,460.5,1006.99,444.73L1006.99,444.73z"/>
		</g>
	</g>
</g>
<g id="Layer_8">
	<g>
		<g>
			<path class="st6" d="M106.6,425.43c-0.67,59.03-0.84,118.07-0.5,177.11c0.33,58.74,1.16,117.47,2.49,176.19
				c0.75,33.12,1.66,66.25,2.72,99.36c0.16,5.14,8.17,5.16,8,0c-1.89-59.01-3.29-118.03-4.18-177.06
				c-0.89-58.73-1.28-117.47-1.17-176.2c0.06-33.13,0.28-66.27,0.65-99.4C114.66,420.28,106.66,420.27,106.6,425.43L106.6,425.43z"
				/>
		</g>
	</g>
	<g>
		<g>
			<path class="st6" d="M77.19,468.46c3.16,16.22,10.08,31.79,20.03,44.99c2.91,3.86,6.01,7.54,9.38,11c1.46,1.5,4.21,1.58,5.66,0
				c1.48-1.61,1.56-4.05,0-5.66c-2.79-2.86-5.44-5.87-7.88-9.04c0.29,0.37-0.41-0.54-0.5-0.67c-0.29-0.39-0.58-0.77-0.86-1.17
				c-0.57-0.78-1.12-1.57-1.67-2.37c-1.13-1.65-2.22-3.33-3.26-5.04c-4.22-6.94-7.29-13.58-9.74-20.97
				c-1.43-4.32-2.58-8.73-3.45-13.2c-0.4-2.06-2.97-3.42-4.92-2.79C77.79,464.25,76.76,466.26,77.19,468.46L77.19,468.46z"/>
		</g>
	</g>
	<g>
		<g>
			<path class="st6" d="M116.15,469.11c-0.04-0.78-0.01-1.55,0.08-2.32c-0.05,0.35-0.1,0.71-0.14,1.06c0.09-0.64,0.22-1.27,0.4-1.89
				c0.09-0.31,0.19-0.62,0.3-0.92c0.04-0.12,0.1-0.24,0.14-0.36c-0.41,1.17-0.23,0.53-0.09,0.24c0.26-0.56,0.56-1.1,0.89-1.62
				c0.17-0.27,0.37-0.53,0.55-0.8c0.25-0.36-0.68,0.82-0.21,0.27c0.11-0.12,0.21-0.25,0.31-0.37c0.4-0.46,0.84-0.9,1.3-1.31
				c0.12-0.11,0.24-0.21,0.37-0.31c0.52-0.42-0.17,0.07-0.27,0.21c0.16-0.22,0.57-0.4,0.8-0.55c0.27-0.17,0.55-0.34,0.84-0.49
				c0.26-0.14,0.65-0.24,0.87-0.42c-0.06,0.05-0.93,0.37-0.42,0.18c0.15-0.06,0.3-0.11,0.46-0.16c0.34-0.11,0.68-0.21,1.03-0.3
				c2.03-0.51,3.45-2.9,2.79-4.92c-0.68-2.1-2.74-3.34-4.92-2.79c-7.67,1.92-13.49,9.65-13.07,17.57c0.11,2.09,1.76,4.1,4,4
				C114.22,473.02,116.27,471.35,116.15,469.11L116.15,469.11z"/>
		</g>
	</g>
	<g>
		<g>
			<path class="st6" d="M200.94,290.32c-5.78,78.12-7.08,156.48-6.6,234.79c0.48,78,2.72,155.98,3.99,233.97
				c0.72,43.76,1.12,87.54,0.77,131.3c-0.04,5.15,7.96,5.15,8,0c0.64-78.4-1.19-156.79-2.79-235.18
				c-1.59-77.94-2.94-155.91-1.33-233.86c0.9-43.72,2.75-87.42,5.97-131.03C209.32,285.19,201.32,285.21,200.94,290.32
				L200.94,290.32z"/>
		</g>
	</g>
	<g>
		<g>
			<path class="st6" d="M158.14,294.43c-3.06,23.24,4.38,47.19,18.9,65.41c3.95,4.95,8.47,9.42,13.47,13.3
				c1.65,1.28,4.07,1.73,5.66,0c1.31-1.43,1.77-4.29,0-5.66c-4.4-3.41-8.43-7.28-12.02-11.54c-0.41-0.48-0.81-0.97-1.21-1.46
				c-0.2-0.25-0.39-0.49-0.59-0.74c-0.45-0.57,0.55,0.73-0.19-0.24c-0.88-1.16-1.73-2.34-2.55-3.54c-1.53-2.25-2.95-4.57-4.26-6.96
				c-1.34-2.44-2.56-4.95-3.65-7.51c0.28,0.65-0.04-0.11-0.11-0.27c-0.12-0.29-0.24-0.59-0.35-0.88c-0.23-0.59-0.46-1.18-0.68-1.77
				c-0.51-1.37-0.98-2.74-1.41-4.13c-0.81-2.6-1.5-5.23-2.06-7.89c-0.29-1.36-0.54-2.73-0.76-4.1c-0.04-0.25-0.08-0.5-0.12-0.75
				c-0.01-0.08-0.18-1.32-0.07-0.44c-0.1-0.75-0.19-1.51-0.26-2.26c-0.63-6.17-0.55-12.4,0.26-18.54c0.27-2.08-2.04-4.09-4-4
				C159.74,290.53,158.44,292.19,158.14,294.43L158.14,294.43z"/>
		</g>
	</g>
	<g>
		<path class="st5" d="M208.24,319.73c5.3-15.09,15.89-28.27,29.49-36.68"/>
		<g>
			<path class="st6" d="M212.09,320.8c0.35-0.99,0.72-1.97,1.11-2.94c0.1-0.24,0.2-0.49,0.3-0.73c-0.12,0.29-0.13,0.31-0.02,0.05
				c0.18-0.42,0.37-0.84,0.56-1.26c0.82-1.79,1.71-3.54,2.67-5.25c0.96-1.71,2-3.39,3.1-5.01c0.51-0.76,1.04-1.51,1.59-2.25
				c0.08-0.11,0.96-1.28,0.56-0.76c0.28-0.36,0.57-0.72,0.86-1.08c2.43-3.01,5.1-5.82,7.99-8.39c0.68-0.61,1.38-1.21,2.09-1.79
				c0.4-0.33,0.81-0.66,1.22-0.99c0.37-0.29,0.41-0.32,0.12-0.1c0.21-0.16,0.42-0.32,0.63-0.47c1.58-1.17,3.21-2.28,4.88-3.32
				c1.77-1.11,2.63-3.62,1.44-5.47c-1.15-1.78-3.57-2.62-5.47-1.44c-14.54,9.06-25.61,22.94-31.32,39.07
				c-0.7,1.97,0.79,4.46,2.79,4.92C209.41,324.1,211.34,322.91,212.09,320.8L212.09,320.8z"/>
		</g>
	</g>
	<g>
		<g>
			<path class="st6" d="M312.07,441.31c1.09,58.86,1.54,117.72,1.34,176.59c-0.2,58.86-1.04,117.73-2.53,176.57
				c-0.83,32.83-1.9,65.66-3.07,98.48c-0.09,2.57,3.91,2.57,4,0c2.09-58.64,3.74-117.28,4.66-175.95
				c0.92-58.86,1.2-117.73,0.83-176.59c-0.21-33.04-0.62-66.07-1.23-99.1C316.02,438.73,312.02,438.73,312.07,441.31L312.07,441.31z
				"/>
		</g>
	</g>
	<g>
		<g>
			<path class="st6" d="M291.54,485.42c1.37,16.4,9.82,31.61,22.96,41.48c0.86,0.65,2.24,0.14,2.74-0.72
				c0.6-1.02,0.15-2.09-0.72-2.74c-11.92-8.95-19.74-23.18-20.98-38.03C295.33,482.87,291.32,482.85,291.54,485.42L291.54,485.42z"
				/>
		</g>
	</g>
	<g>
		<g>
			<path class="st6" d="M323.71,478.07c5.01-8.23,11.22-15.63,18.42-22.02c1.93-1.71-0.91-4.53-2.83-2.83
				c-7.45,6.6-13.87,14.32-19.05,22.83C318.91,478.26,322.37,480.27,323.71,478.07L323.71,478.07z"/>
		</g>
	</g>
	<g class="st7">
		<path class="st5" d="M94.29,621.5c-21.59,4.08-44.97-2.86-60.83-18.07c-15.86-15.21-23.78-38.28-20.6-60.02
			c2.27-15.54,9.77-30.05,11.16-45.69c0.85-9.6-0.64-19.3,0.38-28.89c2.7-25.22,21.87-45.09,39.98-62.85
			c14.65-14.36,29.3-28.73,43.95-43.09c1.08-1.06,2.23-2.16,3.7-2.5c2.11-0.49,4.22,0.7,5.95,2c7.21,5.43,12.06,13.35,16.55,21.17
			c20.16,35.07,36.73,72.21,49.37,110.64c4.17,12.66,7.95,25.96,6.04,39.16c-2.74,19-16.61,34.21-29.82,48.14
			c-18.37,19.35-39.88,40.13-66.56,40.13"/>
	</g>
	<g class="st7">
		<path class="st5" d="M208.13,155.54C136.53,205.26,86.59,285.09,73.18,371.22c-2.45,15.72-3.66,32.22,1.77,47.18
			c10.79,29.74,43.75,44.48,74.11,53.38c33.37,9.78,67.66,16.42,102.27,19.81c17.22,1.68,35.29,2.43,51.08-4.63
			c31.59-14.13,42.65-53.92,41.41-88.5c-2.7-74.89-43.96-142.29-85.26-204.82c-10.58-16.02-30.88-37.04-50.04-38.14"/>
	</g>
	<g class="st7">
		<path class="st5" d="M322.96,536.38c-19.25,2.06-38.86,0.67-57.62-4.09c-8.19-2.08-16.6-5.03-22.26-11.29
			c-5.83-6.45-7.88-15.45-8.76-24.1c-2.86-27.85,4.39-56.63,20.08-79.82c15.7-23.18,39.73-40.59,66.65-48.28
			c6.32-1.81,13.47-3,19.19,0.24c3.24,1.84,5.6,4.89,7.72,7.95c25.63,36.99,28.92,84.83,26.99,129.79
			c-0.22,5.24-0.53,10.59-2.44,15.47c-4.21,10.77-15.66,17.34-27.1,19c-11.44,1.66-23.05-0.72-34.36-3.09"/>
	</g>
</g>
<g id="Layer_5">
	<g>
		<path class="st8" d="M468.29,382.57c-2,520,0,520,0,520"/>
		<g>
			<path class="st8" d="M534.29,389.57c-66,53-66,53-66,53"/>
			<path class="st8" d="M536.5,442.67c-91.84,73.75-70.58,56.68-66,53"/>
			<path class="st8" d="M584.79,557.07c-112.5,101.5-112.5,101.5-112.5,101.5"/>
			<path class="st8" d="M538.29,543.57c-66,53-66,53-66,53"/>
			<path class="st8" d="M558.92,454.17c-86.56,115.4-86.56,115.4-86.56,115.4"/>
			<path class="st8" d="M548.79,659.07c-86.29,115.6-86.29,115.6-86.29,115.6"/>
			<path class="st8" d="M548.92,617.17c-86.56,115.4-86.56,115.4-86.56,115.4"/>
		</g>
		<path class="st8" d="M395.86,386.57c66,53,66,53,66,53"/>
		<path class="st8" d="M393.66,439.67c91.84,73.75,70.58,56.68,66,53"/>
		<path class="st8" d="M354.36,517.07c112.5,101.5,112.5,101.5,112.5,101.5"/>
		<path class="st8" d="M396.86,617.57c62.2,50.15,80.11,55.77,66,53"/>
		<path class="st8" d="M385.23,451.17c90.23,124.81-4.08,12.46,86.27,115.33"/>
		<path class="st8" d="M381.36,656.07c86.29,115.6,86.29,115.6,86.29,115.6"/>
		<path class="st8" d="M381.23,614.17c86.56,115.4,86.56,115.4,86.56,115.4"/>
	</g>
	<g>
		<g class="st9">
			<g>
				<path class="st1" d="M493.83,486.19c6.88,0.26,13.31-1.18,19.26-4.31c6.2-2.02,11.56-5.46,16.09-10.34
					c4.88-4.53,8.32-9.89,10.34-16.09c3.13-5.96,4.57-12.38,4.31-19.26c-0.6-4.43-1.19-8.86-1.79-13.29
					c-2.38-8.47-6.66-15.82-12.86-22.06c-3.37-2.61-6.75-5.21-10.12-7.82c-7.8-4.52-16.21-6.8-25.24-6.83
					c-6.88-0.26-13.31,1.18-19.26,4.31c-6.2,2.02-11.56,5.46-16.09,10.34c-4.88,4.53-8.32,9.89-10.34,16.09
					c-3.13,5.96-4.57,12.38-4.31,19.26c0.6,4.43,1.19,8.86,1.79,13.29c2.38,8.47,6.66,15.82,12.86,22.06
					c3.37,2.61,6.75,5.21,10.12,7.82C476.39,483.88,484.81,486.16,493.83,486.19L493.83,486.19z"/>
			</g>
		</g>
		<g class="st9">
			<g>
				<path class="st1" d="M433.77,393.59c6.88,0.26,13.31-1.18,19.26-4.31c6.2-2.02,11.56-5.46,16.09-10.34
					c4.88-4.53,8.32-9.89,10.34-16.09c3.13-5.96,4.57-12.38,4.31-19.26c-0.6-4.43-1.19-8.86-1.79-13.29
					c-2.38-8.47-6.66-15.82-12.86-22.06c-3.37-2.61-6.75-5.21-10.12-7.82c-7.8-4.52-16.21-6.8-25.24-6.83
					c-6.88-0.26-13.31,1.18-19.26,4.31c-6.2,2.02-11.56,5.46-16.09,10.34c-4.88,4.53-8.32,9.89-10.34,16.09
					c-3.13,5.96-4.57,12.38-4.31,19.26c0.6,4.43,1.19,8.86,1.79,13.29c2.38,8.47,6.66,15.82,12.86,22.06
					c3.37,2.61,6.75,5.21,10.12,7.82C416.33,391.28,424.74,393.56,433.77,393.59L433.77,393.59z"/>
			</g>
		</g>
		<g class="st9">
			<g>
				<path class="st1" d="M417.92,675.56c6.88,0.26,13.31-1.18,19.26-4.31c6.2-2.02,11.56-5.46,16.09-10.34
					c4.88-4.53,8.32-9.89,10.34-16.09c3.13-5.96,4.57-12.38,4.31-19.26c-0.6-4.43-1.19-8.86-1.79-13.29
					c-2.38-8.47-6.66-15.82-12.86-22.06c-3.37-2.61-6.75-5.21-10.12-7.82c-7.8-4.52-16.21-6.8-25.24-6.83
					c-6.88-0.26-13.31,1.18-19.26,4.31c-6.2,2.02-11.56,5.46-16.09,10.34c-4.88,4.53-8.32,9.89-10.34,16.09
					c-3.13,5.96-4.57,12.38-4.31,19.26c0.6,4.43,1.19,8.86,1.79,13.29c2.38,8.47,6.66,15.82,12.86,22.06
					c3.37,2.61,6.75,5.21,10.12,7.82C400.48,673.25,408.89,675.53,417.92,675.56L417.92,675.56z"/>
			</g>
		</g>
		<g class="st9">
			<g>
				<path class="st1" d="M407.07,552.92c6.88,0.26,13.31-1.18,19.26-4.31c6.2-2.02,11.56-5.46,16.09-10.34
					c4.88-4.53,8.32-9.89,10.34-16.09c3.13-5.96,4.57-12.38,4.31-19.26c-0.6-4.43-1.19-8.86-1.79-13.29
					c-2.38-8.47-6.66-15.82-12.86-22.06c-3.37-2.61-6.75-5.21-10.12-7.82c-7.8-4.52-16.21-6.8-25.24-6.83
					c-6.88-0.26-13.31,1.18-19.26,4.31c-6.2,2.02-11.56,5.46-16.09,10.34c-4.88,4.53-8.32,9.89-10.34,16.09
					c-3.13,5.96-4.57,12.38-4.31,19.26c0.6,4.43,1.19,8.86,1.79,13.29c2.38,8.47,6.66,15.82,12.86,22.06
					c3.37,2.61,6.75,5.21,10.12,7.82C389.63,550.62,398.05,552.9,407.07,552.92L407.07,552.92z"/>
			</g>
		</g>
		<g class="st9">
			<g>
				<path class="st1" d="M328.65,605.48c6.88,0.26,13.31-1.18,19.26-4.31c6.2-2.02,11.56-5.46,16.09-10.34
					c4.88-4.53,8.32-9.89,10.34-16.09c3.13-5.96,4.57-12.38,4.31-19.26c-0.6-4.43-1.19-8.86-1.79-13.29
					c-2.38-8.47-6.66-15.82-12.86-22.06c-3.37-2.61-6.75-5.21-10.12-7.82c-7.8-4.52-16.21-6.8-25.24-6.83
					c-6.88-0.26-13.31,1.18-19.26,4.31c-6.2,2.02-11.56,5.46-16.09,10.34c-4.88,4.53-8.32,9.89-10.34,16.09
					c-3.13,5.96-4.57,12.38-4.31,19.26c0.6,4.43,1.19,8.86,1.79,13.29c2.38,8.47,6.66,15.82,12.86,22.06
					c3.37,2.61,6.75,5.21,10.12,7.82C311.22,603.18,319.63,605.45,328.65,605.48L328.65,605.48z"/>
			</g>
		</g>
		<g class="st9">
			<g>
				<path class="st1" d="M588.93,627.17c6.88,0.26,13.31-1.18,19.26-4.31c6.2-2.02,11.56-5.46,16.09-10.34
					c4.88-4.53,8.32-9.89,10.34-16.09c3.13-5.96,4.57-12.38,4.31-19.26c-0.6-4.43-1.19-8.86-1.79-13.29
					c-2.38-8.47-6.66-15.82-12.86-22.06c-3.37-2.61-6.75-5.21-10.12-7.82c-7.8-4.52-16.21-6.8-25.24-6.83
					c-6.88-0.26-13.31,1.18-19.26,4.31c-6.2,2.02-11.56,5.46-16.09,10.34c-4.88,4.53-8.32,9.89-10.34,16.09
					c-3.13,5.96-4.57,12.38-4.31,19.26c0.6,4.43,1.19,8.86,1.79,13.29c2.38,8.47,6.66,15.82,12.86,22.06
					c3.37,2.61,6.75,5.21,10.12,7.82C571.5,624.87,579.91,627.14,588.93,627.17L588.93,627.17z"/>
			</g>
		</g>
		<g class="st9">
			<g>
				<path class="st1" d="M541.38,733.95c6.88,0.26,13.31-1.18,19.26-4.31c6.2-2.02,11.56-5.46,16.09-10.34
					c4.88-4.53,8.32-9.89,10.34-16.09c3.13-5.96,4.57-12.38,4.31-19.26c-0.6-4.43-1.19-8.86-1.79-13.29
					c-2.38-8.47-6.66-15.82-12.86-22.06c-3.37-2.61-6.75-5.21-10.12-7.82c-7.8-4.52-16.21-6.8-25.24-6.83
					c-6.88-0.26-13.31,1.18-19.26,4.31c-6.2,2.02-11.56,5.46-16.09,10.34c-4.88,4.53-8.32,9.89-10.34,16.09
					c-3.13,5.96-4.57,12.38-4.31,19.26c0.6,4.43,1.19,8.86,1.79,13.29c2.38,8.47,6.66,15.82,12.86,22.06
					c3.37,2.61,6.75,5.21,10.12,7.82C523.95,731.65,532.36,733.92,541.38,733.95L541.38,733.95z"/>
			</g>
		</g>
		<g class="st9">
			<g>
				<path class="st1" d="M417.08,764.82c6.88,0.26,13.31-1.18,19.26-4.31c6.2-2.02,11.56-5.46,16.09-10.34
					c4.88-4.53,8.32-9.89,10.34-16.09c3.13-5.96,4.57-12.38,4.31-19.26c-0.6-4.43-1.19-8.86-1.79-13.29
					c-2.38-8.47-6.66-15.82-12.86-22.06c-3.37-2.61-6.75-5.21-10.12-7.82c-7.8-4.52-16.21-6.8-25.24-6.83
					c-6.88-0.26-13.31,1.18-19.26,4.31c-6.2,2.02-11.56,5.46-16.09,10.34c-4.88,4.53-8.32,9.89-10.34,16.09
					c-3.13,5.96-4.57,12.38-4.31,19.26c0.6,4.43,1.19,8.86,1.79,13.29c2.38,8.47,6.66,15.82,12.86,22.06
					c3.37,2.61,6.75,5.21,10.12,7.82C399.65,762.52,408.06,764.79,417.08,764.82L417.08,764.82z"/>
			</g>
		</g>
		<g class="st9">
			<g>
				<path class="st1" d="M326.15,727.28c6.88,0.26,13.31-1.18,19.26-4.31c6.2-2.02,11.56-5.46,16.09-10.34
					c4.88-4.53,8.32-9.89,10.34-16.09c3.13-5.96,4.57-12.38,4.31-19.26c-0.6-4.43-1.19-8.86-1.79-13.29
					c-2.38-8.47-6.66-15.82-12.86-22.06c-3.37-2.61-6.75-5.21-10.12-7.82c-7.8-4.52-16.21-6.8-25.24-6.83
					c-6.88-0.26-13.31,1.18-19.26,4.31c-6.2,2.02-11.56,5.46-16.09,10.34c-4.88,4.53-8.32,9.89-10.34,16.09
					c-3.13,5.96-4.57,12.38-4.31,19.26c0.6,4.43,1.19,8.86,1.79,13.29c2.38,8.47,6.66,15.82,12.86,22.06
					c3.37,2.61,6.75,5.21,10.12,7.82C308.71,724.98,317.13,727.25,326.15,727.28L326.15,727.28z"/>
			</g>
		</g>
		<g class="st9">
			<g>
				<path class="st1" d="M502.17,585.46c6.88,0.26,13.31-1.18,19.26-4.31c6.2-2.02,11.56-5.46,16.09-10.34
					c4.88-4.53,8.32-9.89,10.34-16.09c3.13-5.96,4.57-12.38,4.31-19.26c-0.6-4.43-1.19-8.86-1.79-13.29
					c-2.38-8.47-6.66-15.82-12.86-22.06c-3.37-2.61-6.75-5.21-10.12-7.82c-7.8-4.52-16.21-6.8-25.24-6.83
					c-6.88-0.26-13.31,1.18-19.26,4.31c-6.2,2.02-11.56,5.46-16.09,10.34c-4.88,4.53-8.32,9.89-10.34,16.09
					c-3.13,5.96-4.57,12.38-4.31,19.26c0.6,4.43,1.19,8.86,1.79,13.29c2.38,8.47,6.66,15.82,12.86,22.06
					c3.37,2.61,6.75,5.21,10.12,7.82C484.74,583.16,493.15,585.43,502.17,585.46L502.17,585.46z"/>
			</g>
		</g>
		<g class="st9">
			<g>
				<path class="st1" d="M578.92,410.29c4.13,0.16,7.98-0.71,11.56-2.58c3.72-1.21,6.94-3.28,9.65-6.2c2.93-2.72,4.99-5.94,6.2-9.65
					c1.88-3.58,2.74-7.43,2.58-11.56c-0.36-2.66-0.71-5.32-1.07-7.98c-1.43-5.08-4-9.49-7.72-13.24c-2.02-1.56-4.05-3.13-6.07-4.69
					c-4.68-2.71-9.73-4.08-15.14-4.1c-4.13-0.16-7.98,0.71-11.56,2.58c-3.72,1.21-6.94,3.28-9.65,6.2c-2.93,2.72-4.99,5.94-6.2,9.65
					c-1.88,3.58-2.74,7.43-2.58,11.56c0.36,2.66,0.71,5.32,1.07,7.98c1.43,5.08,4,9.49,7.72,13.24c2.02,1.56,4.05,3.13,6.07,4.69
					C568.46,408.91,573.51,410.28,578.92,410.29L578.92,410.29z"/>
			</g>
		</g>
		<g class="st9">
			<g>
				<path class="st1" d="M523.03,380.26c4.13,0.16,7.98-0.71,11.56-2.58c3.72-1.21,6.94-3.28,9.65-6.2c2.93-2.72,4.99-5.94,6.2-9.65
					c1.88-3.58,2.74-7.43,2.58-11.56c-0.36-2.66-0.71-5.32-1.07-7.98c-1.43-5.08-4-9.49-7.72-13.24c-2.02-1.56-4.05-3.13-6.07-4.69
					c-4.68-2.71-9.73-4.08-15.14-4.1c-4.13-0.16-7.98,0.71-11.56,2.58c-3.72,1.21-6.94,3.28-9.65,6.2c-2.93,2.72-4.99,5.94-6.2,9.65
					c-1.88,3.58-2.74,7.43-2.58,11.56c0.36,2.66,0.71,5.32,1.07,7.98c1.43,5.08,4,9.49,7.72,13.24c2.02,1.56,4.05,3.13,6.07,4.69
					C512.57,378.88,517.61,380.24,523.03,380.26L523.03,380.26z"/>
			</g>
		</g>
		<g class="st9">
			<g>
				<path class="st1" d="M573.08,467.02c4.13,0.16,7.98-0.71,11.56-2.58c3.72-1.21,6.94-3.28,9.65-6.2c2.93-2.72,4.99-5.94,6.2-9.65
					c1.88-3.58,2.74-7.43,2.58-11.56c-0.36-2.66-0.71-5.32-1.07-7.98c-1.43-5.08-4-9.49-7.72-13.24c-2.02-1.56-4.05-3.13-6.07-4.69
					c-4.68-2.71-9.73-4.08-15.14-4.1c-4.13-0.16-7.98,0.71-11.56,2.58c-3.72,1.21-6.94,3.28-9.65,6.2c-2.93,2.72-4.99,5.94-6.2,9.65
					c-1.88,3.58-2.74,7.43-2.58,11.56c0.36,2.66,0.71,5.32,1.07,7.98c1.43,5.08,4,9.49,7.72,13.24c2.02,1.56,4.05,3.13,6.07,4.69
					C562.62,465.64,567.67,467,573.08,467.02L573.08,467.02z"/>
			</g>
		</g>
		<g class="st9">
			<g>
				<path class="st1" d="M587.27,539.6c4.13,0.16,7.98-0.71,11.56-2.58c3.72-1.21,6.94-3.28,9.65-6.2c2.93-2.72,4.99-5.94,6.2-9.65
					c1.88-3.58,2.74-7.43,2.58-11.56c-0.36-2.66-0.71-5.32-1.07-7.98c-1.43-5.08-4-9.49-7.72-13.24c-2.02-1.56-4.05-3.13-6.07-4.69
					c-4.68-2.71-9.73-4.08-15.14-4.1c-4.13-0.16-7.98,0.71-11.56,2.58c-3.72,1.21-6.94,3.28-9.65,6.2c-2.93,2.72-4.99,5.94-6.2,9.65
					c-1.88,3.58-2.74,7.43-2.58,11.56c0.36,2.66,0.71,5.32,1.07,7.98c1.43,5.08,4,9.49,7.72,13.24c2.02,1.56,4.05,3.13,6.07,4.69
					C576.8,538.22,581.85,539.58,587.27,539.6L587.27,539.6z"/>
			</g>
		</g>
		<g class="st9">
			<g>
				<path class="st1" d="M534.71,516.24c4.13,0.16,7.98-0.71,11.56-2.58c3.72-1.21,6.94-3.28,9.65-6.2c2.93-2.72,4.99-5.94,6.2-9.65
					c1.88-3.58,2.74-7.43,2.58-11.56c-0.36-2.66-0.71-5.32-1.07-7.98c-1.43-5.08-4-9.49-7.72-13.24c-2.02-1.56-4.05-3.13-6.07-4.69
					c-4.68-2.71-9.73-4.08-15.14-4.1c-4.13-0.16-7.98,0.71-11.56,2.58c-3.72,1.21-6.94,3.28-9.65,6.2c-2.93,2.72-4.99,5.94-6.2,9.65
					c-1.88,3.58-2.74,7.43-2.58,11.56c0.36,2.66,0.71,5.32,1.07,7.98c1.43,5.08,4,9.49,7.72,13.24c2.02,1.56,4.05,3.13,6.07,4.69
					C524.25,514.86,529.29,516.22,534.71,516.24L534.71,516.24z"/>
			</g>
		</g>
		<g class="st9">
			<g>
				<path class="st1" d="M520.53,625.52c4.13,0.16,7.98-0.71,11.56-2.58c3.72-1.21,6.94-3.28,9.65-6.2c2.93-2.72,4.99-5.94,6.2-9.65
					c1.88-3.58,2.74-7.43,2.58-11.56c-0.36-2.66-0.71-5.32-1.07-7.98c-1.43-5.08-4-9.49-7.72-13.24c-2.02-1.56-4.05-3.13-6.07-4.69
					c-4.68-2.71-9.73-4.08-15.14-4.1c-4.13-0.16-7.98,0.71-11.56,2.58c-3.72,1.21-6.94,3.28-9.65,6.2c-2.93,2.72-4.99,5.94-6.2,9.65
					c-1.88,3.58-2.74,7.43-2.58,11.56c0.36,2.66,0.71,5.32,1.07,7.98c1.43,5.08,4,9.49,7.72,13.24c2.02,1.56,4.05,3.13,6.07,4.69
					C510.06,624.14,515.11,625.51,520.53,625.52L520.53,625.52z"/>
			</g>
		</g>
		<g class="st9">
			<g>
				<path class="st1" d="M375.37,447c4.13,0.16,7.98-0.71,11.56-2.58c3.72-1.21,6.94-3.28,9.65-6.2c2.93-2.72,4.99-5.94,6.2-9.65
					c1.88-3.58,2.74-7.43,2.58-11.56c-0.36-2.66-0.71-5.32-1.07-7.98c-1.43-5.08-4-9.49-7.72-13.24c-2.02-1.56-4.05-3.13-6.07-4.69
					c-4.68-2.71-9.73-4.08-15.14-4.1c-4.13-0.16-7.98,0.71-11.56,2.58c-3.72,1.21-6.94,3.28-9.65,6.2c-2.93,2.72-4.99,5.94-6.2,9.65
					c-1.88,3.58-2.74,7.43-2.58,11.56c0.36,2.66,0.71,5.32,1.07,7.98c1.43,5.08,4,9.49,7.72,13.24c2.02,1.56,4.05,3.13,6.07,4.69
					C364.91,445.62,369.96,446.98,375.37,447L375.37,447z"/>
			</g>
		</g>
		<g class="st9">
			<g>
				<path class="st1" d="M416.25,447c4.13,0.16,7.98-0.71,11.56-2.58c3.72-1.21,6.94-3.28,9.65-6.2c2.93-2.72,4.99-5.94,6.2-9.65
					c1.88-3.58,2.74-7.43,2.58-11.56c-0.36-2.66-0.71-5.32-1.07-7.98c-1.43-5.08-4-9.49-7.72-13.24c-2.02-1.56-4.05-3.13-6.07-4.69
					c-4.68-2.71-9.73-4.08-15.14-4.1c-4.13-0.16-7.98,0.71-11.56,2.58c-3.72,1.21-6.94,3.28-9.65,6.2c-2.93,2.72-4.99,5.94-6.2,9.65
					c-1.88,3.58-2.74,7.43-2.58,11.56c0.36,2.66,0.71,5.32,1.07,7.98c1.43,5.08,4,9.49,7.72,13.24c2.02,1.56,4.05,3.13,6.07,4.69
					C405.79,445.62,410.83,446.98,416.25,447L416.25,447z"/>
			</g>
		</g>
		<g class="st9">
			<g>
				<path class="st1" d="M321.98,507.06c4.13,0.16,7.98-0.71,11.56-2.58c3.72-1.21,6.94-3.28,9.65-6.2c2.93-2.72,4.99-5.94,6.2-9.65
					c1.88-3.58,2.74-7.43,2.58-11.56c-0.36-2.66-0.71-5.32-1.07-7.98c-1.43-5.08-4-9.49-7.72-13.24c-2.02-1.56-4.05-3.13-6.07-4.69
					c-4.68-2.71-9.73-4.08-15.14-4.1c-4.13-0.16-7.98,0.71-11.56,2.58c-3.72,1.21-6.94,3.28-9.65,6.2c-2.93,2.72-4.99,5.94-6.2,9.65
					c-1.88,3.58-2.74,7.43-2.58,11.56c0.36,2.66,0.71,5.32,1.07,7.98c1.43,5.08,4,9.49,7.72,13.24c2.02,1.56,4.05,3.13,6.07,4.69
					C311.52,505.68,316.56,507.05,321.98,507.06L321.98,507.06z"/>
			</g>
		</g>
		<g class="st9">
			<g>
				<path class="st1" d="M498.46,797.82c4.13,0.16,7.98-0.71,11.56-2.58c3.72-1.21,6.94-3.28,9.65-6.2c2.93-2.72,4.99-5.94,6.2-9.65
					c1.88-3.58,2.74-7.43,2.58-11.56c-0.36-2.66-0.71-5.32-1.07-7.98c-1.43-5.08-4-9.49-7.72-13.24c-2.02-1.56-4.05-3.13-6.07-4.69
					c-4.68-2.71-9.73-4.08-15.14-4.1c-4.13-0.16-7.98,0.71-11.56,2.58c-3.72,1.21-6.94,3.28-9.65,6.2c-2.93,2.72-4.99,5.94-6.2,9.65
					c-1.88,3.58-2.74,7.43-2.58,11.56c0.36,2.66,0.71,5.32,1.07,7.98c1.43,5.08,4,9.49,7.72,13.24c2.02,1.56,4.05,3.13,6.07,4.69
					C488,796.43,493.05,797.8,498.46,797.82L498.46,797.82z"/>
			</g>
		</g>
		<g class="st9">
			<g>
				<path class="st1" d="M484.11,731.46c4.13,0.16,7.98-0.71,11.56-2.58c3.72-1.21,6.94-3.28,9.65-6.2c2.93-2.72,4.99-5.94,6.2-9.65
					c1.88-3.58,2.74-7.43,2.58-11.56c-0.36-2.66-0.71-5.32-1.07-7.98c-1.43-5.08-4-9.49-7.72-13.24c-2.02-1.56-4.05-3.13-6.07-4.69
					c-4.68-2.71-9.73-4.08-15.14-4.1c-4.13-0.16-7.98,0.71-11.56,2.58c-3.72,1.21-6.94,3.28-9.65,6.2c-2.93,2.72-4.99,5.94-6.2,9.65
					c-1.88,3.58-2.74,7.43-2.58,11.56c0.36,2.66,0.71,5.32,1.07,7.98c1.43,5.08,4,9.49,7.72,13.24c2.02,1.56,4.05,3.13,6.07,4.69
					C473.65,730.08,478.7,731.44,484.11,731.46L484.11,731.46z"/>
			</g>
		</g>
		<g class="st9">
			<g>
				<path class="st1" d="M423.14,831.89c4.13,0.16,7.98-0.71,11.56-2.58c3.72-1.21,6.94-3.28,9.65-6.2c2.93-2.72,4.99-5.94,6.2-9.65
					c1.88-3.58,2.74-7.43,2.58-11.56c-0.36-2.66-0.71-5.32-1.07-7.98c-1.43-5.08-4-9.49-7.72-13.24c-2.02-1.56-4.05-3.13-6.07-4.69
					c-4.68-2.71-9.73-4.08-15.14-4.1c-4.13-0.16-7.98,0.71-11.56,2.58c-3.72,1.21-6.94,3.28-9.65,6.2c-2.93,2.72-4.99,5.94-6.2,9.65
					c-1.88,3.58-2.74,7.43-2.58,11.56c0.36,2.66,0.71,5.32,1.07,7.98c1.43,5.08,4,9.49,7.72,13.24c2.02,1.56,4.05,3.13,6.07,4.69
					C412.68,830.51,417.72,831.87,423.14,831.89L423.14,831.89z"/>
			</g>
		</g>
		<g class="st9">
			<g>
				<path class="st1" d="M369.34,763.74c4.13,0.16,7.98-0.71,11.56-2.58c3.72-1.21,6.94-3.28,9.65-6.2c2.93-2.72,4.99-5.94,6.2-9.65
					c1.88-3.58,2.74-7.43,2.58-11.56c-0.36-2.66-0.71-5.32-1.07-7.98c-1.43-5.08-4-9.49-7.72-13.24c-2.02-1.56-4.05-3.13-6.07-4.69
					c-4.68-2.71-9.73-4.08-15.14-4.1c-4.13-0.16-7.98,0.71-11.56,2.58c-3.72,1.21-6.94,3.28-9.65,6.2c-2.93,2.72-4.99,5.94-6.2,9.65
					c-1.88,3.58-2.74,7.43-2.58,11.56c0.36,2.66,0.71,5.32,1.07,7.98c1.43,5.08,4,9.49,7.72,13.24c2.02,1.56,4.05,3.13,6.07,4.69
					C358.87,762.36,363.92,763.72,369.34,763.74L369.34,763.74z"/>
			</g>
		</g>
		<g class="st9">
			<g>
				<path class="st1" d="M555.85,778.09c4.13,0.16,7.98-0.71,11.56-2.58c3.72-1.21,6.94-3.28,9.65-6.2c2.93-2.72,4.99-5.94,6.2-9.65
					c1.88-3.58,2.74-7.43,2.58-11.56c-0.36-2.66-0.71-5.32-1.07-7.98c-1.43-5.08-4-9.49-7.72-13.24c-2.02-1.56-4.05-3.13-6.07-4.69
					c-4.68-2.71-9.73-4.08-15.14-4.1c-4.13-0.16-7.98,0.71-11.56,2.58c-3.72,1.21-6.94,3.28-9.65,6.2c-2.93,2.72-4.99,5.94-6.2,9.65
					c-1.88,3.58-2.74,7.43-2.58,11.56c0.36,2.66,0.71,5.32,1.07,7.98c1.43,5.08,4,9.49,7.72,13.24c2.02,1.56,4.05,3.13,6.07,4.69
					C545.39,776.71,550.44,778.07,555.85,778.09L555.85,778.09z"/>
			</g>
		</g>
		<g class="st9">
			<g>
				<path class="st1" d="M593.51,654.07c2.56,0,5.26-1.12,7.07-2.93c0.98-0.91,1.66-1.98,2.07-3.22c0.63-1.19,0.91-2.48,0.86-3.85
					c-0.12-2.59-0.97-5.27-2.93-7.07c-1.96-1.8-4.36-2.93-7.07-2.93c-2.56,0-5.26,1.12-7.07,2.93c-0.98,0.91-1.66,1.98-2.07,3.22
					c-0.63,1.19-0.91,2.48-0.86,3.85c0.12,2.59,0.97,5.27,2.93,7.07C588.4,652.94,590.8,654.07,593.51,654.07L593.51,654.07z"/>
			</g>
		</g>
		<g class="st9">
			<g>
				<path class="st1" d="M609.66,707.87c2.56,0,5.26-1.12,7.07-2.93c0.98-0.91,1.66-1.98,2.07-3.22c0.63-1.19,0.91-2.48,0.86-3.85
					c-0.12-2.59-0.97-5.27-2.93-7.07c-1.96-1.8-4.36-2.93-7.07-2.93c-2.56,0-5.26,1.12-7.07,2.93c-0.98,0.91-1.66,1.98-2.07,3.22
					c-0.63,1.19-0.91,2.48-0.86,3.85c0.12,2.59,0.97,5.27,2.93,7.07C604.54,706.74,606.95,707.87,609.66,707.87L609.66,707.87z"/>
			</g>
		</g>
		<g class="st9">
			<g>
				<path class="st1" d="M602.48,736.57c2.56,0,5.26-1.12,7.07-2.93c0.98-0.91,1.66-1.98,2.07-3.22c0.63-1.19,0.91-2.48,0.86-3.85
					c-0.12-2.59-0.97-5.27-2.93-7.07c-1.96-1.8-4.36-2.93-7.07-2.93c-2.56,0-5.26,1.12-7.07,2.93c-0.98,0.91-1.66,1.98-2.07,3.22
					c-0.63,1.19-0.91,2.48-0.86,3.85c0.12,2.59,0.97,5.27,2.93,7.07C597.37,735.43,599.77,736.57,602.48,736.57L602.48,736.57z"/>
			</g>
		</g>
		<g class="st9">
			<g>
				<path class="st1" d="M616.83,655.86c2.56,0,5.26-1.12,7.07-2.93c0.98-0.91,1.66-1.98,2.07-3.22c0.63-1.19,0.91-2.48,0.86-3.85
					c-0.12-2.59-0.97-5.27-2.93-7.07c-1.96-1.8-4.36-2.93-7.07-2.93c-2.56,0-5.26,1.12-7.07,2.93c-0.98,0.91-1.66,1.98-2.07,3.22
					c-0.63,1.19-0.91,2.48-0.86,3.85c0.12,2.59,0.97,5.27,2.93,7.07C611.71,654.73,614.12,655.86,616.83,655.86L616.83,655.86z"/>
			</g>
		</g>
		<g class="st9">
			<g>
				<path class="st1" d="M634.76,632.55c2.56,0,5.26-1.12,7.07-2.93c0.98-0.91,1.66-1.98,2.07-3.22c0.63-1.19,0.91-2.48,0.86-3.85
					c-0.12-2.59-0.97-5.27-2.93-7.07c-1.96-1.8-4.36-2.93-7.07-2.93c-2.56,0-5.26,1.12-7.07,2.93c-0.98,0.91-1.66,1.98-2.07,3.22
					c-0.63,1.19-0.91,2.48-0.86,3.85c0.12,2.59,0.97,5.27,2.93,7.07C629.65,631.41,632.05,632.55,634.76,632.55L634.76,632.55z"/>
			</g>
		</g>
		<g class="st9">
			<g>
				<path class="st1" d="M629.38,688.14c2.56,0,5.26-1.12,7.07-2.93c0.98-0.91,1.66-1.98,2.07-3.22c0.63-1.19,0.91-2.48,0.86-3.85
					c-0.12-2.59-0.97-5.27-2.93-7.07c-1.96-1.8-4.36-2.93-7.07-2.93c-2.56,0-5.26,1.12-7.07,2.93c-0.98,0.91-1.66,1.98-2.07,3.22
					c-0.63,1.19-0.91,2.48-0.86,3.85c0.12,2.59,0.97,5.27,2.93,7.07C624.27,687.01,626.67,688.14,629.38,688.14L629.38,688.14z"/>
			</g>
		</g>
		<g class="st9">
			<g>
				<path class="st1" d="M609.66,469.35c2.56,0,5.26-1.12,7.07-2.93c0.98-0.91,1.66-1.98,2.07-3.22c0.63-1.19,0.91-2.48,0.86-3.85
					c-0.12-2.59-0.97-5.27-2.93-7.07c-1.96-1.8-4.36-2.93-7.07-2.93c-2.56,0-5.26,1.12-7.07,2.93c-0.98,0.91-1.66,1.98-2.07,3.22
					c-0.63,1.19-0.91,2.48-0.86,3.85c0.12,2.59,0.97,5.27,2.93,7.07C604.54,468.21,606.95,469.35,609.66,469.35L609.66,469.35z"/>
			</g>
		</g>
		<g class="st9">
			<g>
				<path class="st1" d="M588.13,480.11c2.56,0,5.26-1.12,7.07-2.93c0.98-0.91,1.66-1.98,2.07-3.22c0.63-1.19,0.91-2.48,0.86-3.85
					c-0.12-2.59-0.97-5.27-2.93-7.07c-1.96-1.8-4.36-2.93-7.07-2.93c-2.56,0-5.26,1.12-7.07,2.93c-0.98,0.91-1.66,1.98-2.07,3.22
					c-0.63,1.19-0.91,2.48-0.86,3.85c0.12,2.59,0.97,5.27,2.93,7.07C583.02,478.97,585.42,480.11,588.13,480.11L588.13,480.11z"/>
			</g>
		</g>
		<g class="st9">
			<g>
				<path class="st1" d="M536.12,406.58c2.56,0,5.26-1.12,7.07-2.93c0.98-0.91,1.66-1.98,2.07-3.22c0.63-1.19,0.91-2.48,0.86-3.85
					c-0.12-2.59-0.97-5.27-2.93-7.07c-1.96-1.8-4.36-2.93-7.07-2.93c-2.56,0-5.26,1.12-7.07,2.93c-0.98,0.91-1.66,1.98-2.07,3.22
					c-0.63,1.19-0.91,2.48-0.86,3.85c0.12,2.59,0.97,5.27,2.93,7.07C531.01,405.44,533.42,406.58,536.12,406.58L536.12,406.58z"/>
			</g>
		</g>
		<g class="st9">
			<g>
				<path class="st1" d="M387.8,427.81c2.56,0,5.26-1.12,7.07-2.93c0.98-0.91,1.66-1.98,2.07-3.22c0.63-1.19,0.91-2.48,0.86-3.85
					c-0.12-2.59-0.97-5.27-2.93-7.07c-1.96-1.8-4.36-2.93-7.07-2.93c-2.56,0-5.26,1.12-7.07,2.93c-0.98,0.91-1.66,1.98-2.07,3.22
					c-0.63,1.19-0.91,2.48-0.86,3.85c0.12,2.59,0.97,5.27,2.93,7.07C382.69,426.68,385.09,427.81,387.8,427.81L387.8,427.81z"/>
			</g>
		</g>
		<g class="st9">
			<g>
				<path class="st1" d="M383.22,336.08c2.56,0,5.26-1.12,7.07-2.93c0.98-0.91,1.66-1.98,2.07-3.22c0.63-1.19,0.91-2.48,0.86-3.85
					c-0.12-2.59-0.97-5.27-2.93-7.07c-1.96-1.8-4.36-2.93-7.07-2.93c-2.56,0-5.26,1.12-7.07,2.93c-0.98,0.91-1.66,1.98-2.07,3.22
					c-0.63,1.19-0.91,2.48-0.86,3.85c0.12,2.59,0.97,5.27,2.93,7.07C378.1,334.94,380.51,336.08,383.22,336.08L383.22,336.08z"/>
			</g>
		</g>
		<g class="st9">
			<g>
				<path class="st1" d="M364.87,368.18c2.56,0,5.26-1.12,7.07-2.93c0.98-0.91,1.66-1.98,2.07-3.22c0.63-1.19,0.91-2.48,0.86-3.85
					c-0.12-2.59-0.97-5.27-2.93-7.07c-1.96-1.8-4.36-2.93-7.07-2.93c-2.56,0-5.26,1.12-7.07,2.93c-0.98,0.91-1.66,1.98-2.07,3.22
					c-0.63,1.19-0.91,2.48-0.86,3.85c0.12,2.59,0.97,5.27,2.93,7.07C359.75,367.05,362.16,368.18,364.87,368.18L364.87,368.18z"/>
			</g>
		</g>
		<g class="st9">
			<g>
				<path class="st1" d="M337.35,400.29c2.56,0,5.26-1.12,7.07-2.93c0.98-0.91,1.66-1.98,2.07-3.22c0.63-1.19,0.91-2.48,0.86-3.85
					c-0.12-2.59-0.97-5.27-2.93-7.07c-1.96-1.8-4.36-2.93-7.07-2.93c-2.56,0-5.26,1.12-7.07,2.93c-0.98,0.91-1.66,1.98-2.07,3.22
					c-0.63,1.19-0.91,2.48-0.86,3.85c0.12,2.59,0.97,5.27,2.93,7.07C332.23,399.16,334.64,400.29,337.35,400.29L337.35,400.29z"/>
			</g>
		</g>
		<g class="st9">
			<g>
				<path class="st1" d="M335.05,436.99c2.56,0,5.26-1.12,7.07-2.93c0.98-0.91,1.66-1.98,2.07-3.22c0.63-1.19,0.91-2.48,0.86-3.85
					c-0.12-2.59-0.97-5.27-2.93-7.07c-1.96-1.8-4.36-2.93-7.07-2.93c-2.56,0-5.26,1.12-7.07,2.93c-0.98,0.91-1.66,1.98-2.07,3.22
					c-0.63,1.19-0.91,2.48-0.86,3.85c0.12,2.59,0.97,5.27,2.93,7.07C329.94,435.85,332.34,436.99,335.05,436.99L335.05,436.99z"/>
			</g>
		</g>
		<g class="st9">
			<g>
				<path class="st1" d="M330.72,445.83c5.51,0.21,10.64-0.94,15.41-3.45c4.96-1.61,9.25-4.37,12.87-8.27
					c3.9-3.62,6.66-7.91,8.27-12.87c2.5-4.77,3.65-9.9,3.45-15.41c-0.48-3.54-0.95-7.09-1.43-10.63
					c-1.9-6.78-5.33-12.66-10.29-17.65c-2.7-2.08-5.4-4.17-8.1-6.25c-6.24-3.62-12.97-5.44-20.19-5.46
					c-5.51-0.21-10.64,0.94-15.41,3.45c-4.96,1.61-9.25,4.37-12.87,8.27c-3.9,3.62-6.66,7.91-8.27,12.87
					c-2.5,4.77-3.65,9.9-3.45,15.41c0.48,3.54,0.95,7.09,1.43,10.63c1.9,6.78,5.33,12.66,10.29,17.65c2.7,2.08,5.4,4.17,8.1,6.25
					C316.77,443.98,323.5,445.8,330.72,445.83L330.72,445.83z"/>
			</g>
		</g>
		<g class="st9">
			<g>
				<path class="st1" d="M378.4,402.81c5.13,0,10.52-2.23,14.14-5.86c1.95-1.81,3.33-3.96,4.14-6.44c1.25-2.38,1.83-4.95,1.72-7.71
					c-0.23-5.17-1.93-10.54-5.86-14.14c-3.91-3.59-8.72-5.86-14.14-5.86c-5.13,0-10.52,2.23-14.14,5.86
					c-1.95,1.81-3.33,3.96-4.14,6.44c-1.25,2.38-1.83,4.95-1.72,7.71c0.23,5.17,1.93,10.54,5.86,14.14
					C368.17,400.55,372.98,402.81,378.4,402.81L378.4,402.81z"/>
			</g>
		</g>
		<g class="st9">
			<g>
				<path class="st1" d="M360.31,360.07c5.13,0,10.52-2.23,14.14-5.86c1.95-1.81,3.33-3.96,4.14-6.44c1.25-2.38,1.83-4.95,1.72-7.71
					c-0.23-5.17-1.93-10.54-5.86-14.14c-3.91-3.59-8.72-5.86-14.14-5.86c-5.13,0-10.52,2.23-14.14,5.86
					c-1.95,1.81-3.33,3.96-4.14,6.44c-1.25,2.38-1.83,4.95-1.72,7.71c0.23,5.17,1.93,10.54,5.86,14.14
					C350.08,357.8,354.89,360.07,360.31,360.07L360.31,360.07z"/>
			</g>
		</g>
		<g class="st9">
			<g>
				<path class="st1" d="M392.93,594.24c5.13,0,10.52-2.23,14.14-5.86c1.95-1.81,3.33-3.96,4.14-6.44c1.25-2.38,1.83-4.95,1.72-7.71
					c-0.23-5.17-1.93-10.54-5.86-14.14c-3.91-3.59-8.72-5.86-14.14-5.86c-5.13,0-10.52,2.23-14.14,5.86
					c-1.95,1.81-3.33,3.96-4.14,6.44c-1.25,2.38-1.83,4.95-1.72,7.71c0.23,5.17,1.93,10.54,5.86,14.14
					C382.7,591.97,387.51,594.24,392.93,594.24L392.93,594.24z"/>
			</g>
		</g>
		<g class="st9">
			<g>
				<path class="st1" d="M360.75,656.89c5.13,0,10.52-2.23,14.14-5.86c1.95-1.81,3.33-3.96,4.14-6.44c1.25-2.38,1.83-4.95,1.72-7.71
					c-0.23-5.17-1.93-10.54-5.86-14.14c-3.91-3.59-8.72-5.86-14.14-5.86c-5.13,0-10.52,2.23-14.14,5.86
					c-1.95,1.81-3.33,3.96-4.14,6.44c-1.25,2.38-1.83,4.95-1.72,7.71c0.23,5.17,1.93,10.54,5.86,14.14
					C350.52,654.62,355.33,656.89,360.75,656.89L360.75,656.89z"/>
			</g>
		</g>
		<g class="st9">
			<g>
				<path class="st1" d="M452.19,533.27c5.13,0,10.52-2.23,14.14-5.86c1.95-1.81,3.33-3.96,4.14-6.44c1.25-2.38,1.83-4.95,1.72-7.71
					c-0.23-5.17-1.93-10.54-5.86-14.14c-3.91-3.59-8.72-5.86-14.14-5.86c-5.13,0-10.52,2.23-14.14,5.86
					c-1.95,1.81-3.33,3.96-4.14,6.44c-1.25,2.38-1.83,4.95-1.72,7.71c0.23,5.17,1.93,10.54,5.86,14.14
					C441.97,531.01,446.78,533.27,452.19,533.27L452.19,533.27z"/>
			</g>
		</g>
		<g class="st9">
			<g>
				<path class="st1" d="M620.17,699.04c5.13,0,10.52-2.23,14.14-5.86c1.95-1.81,3.33-3.96,4.14-6.44c1.25-2.38,1.83-4.95,1.72-7.71
					c-0.23-5.17-1.93-10.54-5.86-14.14c-3.91-3.59-8.72-5.86-14.14-5.86c-5.13,0-10.52,2.23-14.14,5.86
					c-1.95,1.81-3.33,3.96-4.14,6.44c-1.25,2.38-1.83,4.95-1.72,7.71c0.23,5.17,1.93,10.54,5.86,14.14
					C609.95,696.78,614.76,699.04,620.17,699.04L620.17,699.04z"/>
			</g>
		</g>
		<g class="st9">
			<g>
				<path class="st1" d="M602.49,659.26c5.13,0,10.52-2.23,14.14-5.86c1.95-1.81,3.33-3.96,4.14-6.44c1.25-2.38,1.83-4.95,1.72-7.71
					c-0.23-5.17-1.93-10.54-5.86-14.14c-3.91-3.59-8.72-5.86-14.14-5.86c-5.13,0-10.52,2.23-14.14,5.86
					c-1.95,1.81-3.33,3.96-4.14,6.44c-1.25,2.38-1.83,4.95-1.72,7.71c0.23,5.17,1.93,10.54,5.86,14.14
					C592.26,656.99,597.07,659.26,602.49,659.26L602.49,659.26z"/>
			</g>
		</g>
		<g class="st9">
			<g>
				<path class="st1" d="M595.86,734.41c5.13,0,10.52-2.23,14.14-5.86c1.95-1.81,3.33-3.96,4.14-6.44c1.25-2.38,1.83-4.95,1.72-7.71
					c-0.23-5.17-1.93-10.54-5.86-14.14c-3.91-3.59-8.72-5.86-14.14-5.86c-5.13,0-10.52,2.23-14.14,5.86
					c-1.95,1.81-3.33,3.96-4.14,6.44c-1.25,2.38-1.83,4.95-1.72,7.71c0.23,5.17,1.93,10.54,5.86,14.14
					C585.63,732.14,590.44,734.41,595.86,734.41L595.86,734.41z"/>
			</g>
		</g>
		<g class="st9">
			<g>
				<path class="st1" d="M584.87,610.17c5.13,0,10.52-2.23,14.14-5.86c1.95-1.81,3.33-3.96,4.14-6.44c1.25-2.38,1.83-4.95,1.72-7.71
					c-0.23-5.17-1.93-10.54-5.86-14.14c-3.91-3.59-8.72-5.86-14.14-5.86c-5.13,0-10.52,2.23-14.14,5.86
					c-1.95,1.81-3.33,3.96-4.14,6.44c-1.25,2.38-1.83,4.95-1.72,7.71c0.23,5.17,1.93,10.54,5.86,14.14
					C574.64,607.91,579.45,610.17,584.87,610.17L584.87,610.17z"/>
			</g>
		</g>
		<g class="st9">
			<g>
				<path class="st1" d="M584.87,610.17c5.13,0,10.52-2.23,14.14-5.86c1.95-1.81,3.33-3.96,4.14-6.44c1.25-2.38,1.83-4.95,1.72-7.71
					c-0.23-5.17-1.93-10.54-5.86-14.14c-3.91-3.59-8.72-5.86-14.14-5.86c-5.13,0-10.52,2.23-14.14,5.86
					c-1.95,1.81-3.33,3.96-4.14,6.44c-1.25,2.38-1.83,4.95-1.72,7.71c0.23,5.17,1.93,10.54,5.86,14.14
					C574.64,607.91,579.45,610.17,584.87,610.17L584.87,610.17z"/>
			</g>
		</g>
		<g class="st9">
			<g>
				<path class="st1" d="M586.23,565.16c5.13,0,10.52-2.23,14.14-5.86c1.95-1.81,3.33-3.96,4.14-6.44c1.25-2.38,1.83-4.95,1.72-7.71
					c-0.23-5.17-1.93-10.54-5.86-14.14c-3.91-3.59-8.72-5.86-14.14-5.86c-5.13,0-10.52,2.23-14.14,5.86
					c-1.95,1.81-3.33,3.96-4.14,6.44c-1.25,2.38-1.83,4.95-1.72,7.71c0.23,5.17,1.93,10.54,5.86,14.14
					C576,562.9,580.81,565.16,586.23,565.16L586.23,565.16z"/>
			</g>
		</g>
		<g class="st9">
			<g>
				<path class="st1" d="M586.23,565.16c5.13,0,10.52-2.23,14.14-5.86c1.95-1.81,3.33-3.96,4.14-6.44c1.25-2.38,1.83-4.95,1.72-7.71
					c-0.23-5.17-1.93-10.54-5.86-14.14c-3.91-3.59-8.72-5.86-14.14-5.86c-5.13,0-10.52,2.23-14.14,5.86
					c-1.95,1.81-3.33,3.96-4.14,6.44c-1.25,2.38-1.83,4.95-1.72,7.71c0.23,5.17,1.93,10.54,5.86,14.14
					C576,562.9,580.81,565.16,586.23,565.16L586.23,565.16z"/>
			</g>
		</g>
		<g class="st9">
			<g>
				<path class="st1" d="M541.22,546.07c5.13,0,10.52-2.23,14.14-5.86c1.95-1.81,3.33-3.96,4.14-6.44c1.25-2.38,1.83-4.95,1.72-7.71
					c-0.23-5.17-1.93-10.54-5.86-14.14c-3.91-3.59-8.72-5.86-14.14-5.86c-5.13,0-10.52,2.23-14.14,5.86
					c-1.95,1.81-3.33,3.96-4.14,6.44c-1.25,2.38-1.83,4.95-1.72,7.71c0.23,5.17,1.93,10.54,5.86,14.14
					C530.99,543.8,535.8,546.07,541.22,546.07L541.22,546.07z"/>
			</g>
		</g>
		<g class="st9">
			<g>
				<path class="st1" d="M496.2,559.71c5.13,0,10.52-2.23,14.14-5.86c1.95-1.81,3.33-3.96,4.14-6.44c1.25-2.38,1.83-4.95,1.72-7.71
					c-0.23-5.17-1.93-10.54-5.86-14.14c-3.91-3.59-8.72-5.86-14.14-5.86c-5.13,0-10.52,2.23-14.14,5.86
					c-1.95,1.81-3.33,3.96-4.14,6.44c-1.25,2.38-1.83,4.95-1.72,7.71c0.23,5.17,1.93,10.54,5.86,14.14
					C485.98,557.44,490.79,559.71,496.2,559.71L496.2,559.71z"/>
			</g>
		</g>
		<g class="st9">
			<g>
				<path class="st1" d="M504.39,446.49c5.13,0,10.52-2.23,14.14-5.86c1.95-1.81,3.33-3.96,4.14-6.44c1.25-2.38,1.83-4.95,1.72-7.71
					c-0.23-5.17-1.93-10.54-5.86-14.14c-3.91-3.59-8.72-5.86-14.14-5.86c-5.13,0-10.52,2.23-14.14,5.86
					c-1.95,1.81-3.33,3.96-4.14,6.44c-1.25,2.38-1.83,4.95-1.72,7.71c0.23,5.17,1.93,10.54,5.86,14.14
					C494.16,444.23,498.97,446.49,504.39,446.49L504.39,446.49z"/>
			</g>
		</g>
		<g class="st9">
			<g>
				<path class="st1" d="M503.02,469.68c5.13,0,10.52-2.23,14.14-5.86c1.95-1.81,3.33-3.96,4.14-6.44c1.25-2.38,1.83-4.95,1.72-7.71
					c-0.23-5.17-1.93-10.54-5.86-14.14c-3.91-3.59-8.72-5.86-14.14-5.86c-5.13,0-10.52,2.23-14.14,5.86
					c-1.95,1.81-3.33,3.96-4.14,6.44c-1.25,2.38-1.83,4.95-1.72,7.71c0.23,5.17,1.93,10.54,5.86,14.14
					C492.8,467.41,497.61,469.68,503.02,469.68L503.02,469.68z"/>
			</g>
		</g>
		<g class="st9">
			<g>
				<path class="st1" d="M430.73,513.33c5.13,0,10.52-2.23,14.14-5.86c1.95-1.81,3.33-3.96,4.14-6.44c1.25-2.38,1.83-4.95,1.72-7.71
					c-0.23-5.17-1.93-10.54-5.86-14.14c-3.91-3.59-8.72-5.86-14.14-5.86c-5.13,0-10.52,2.23-14.14,5.86
					c-1.95,1.81-3.33,3.96-4.14,6.44c-1.25,2.38-1.83,4.95-1.72,7.71c0.23,5.17,1.93,10.54,5.86,14.14
					C420.5,511.06,425.31,513.33,430.73,513.33L430.73,513.33z"/>
			</g>
		</g>
		<g class="st9">
			<g>
				<path class="st1" d="M440.9,567.77c5.13,0,10.52-2.23,14.14-5.86c1.95-1.81,3.33-3.96,4.14-6.44c1.25-2.38,1.83-4.95,1.72-7.71
					c-0.23-5.17-1.93-10.54-5.86-14.14c-3.91-3.59-8.72-5.86-14.14-5.86c-5.13,0-10.52,2.23-14.14,5.86
					c-1.95,1.81-3.33,3.96-4.14,6.44c-1.25,2.38-1.83,4.95-1.72,7.71c0.23,5.17,1.93,10.54,5.86,14.14
					C430.67,565.5,435.48,567.77,440.9,567.77L440.9,567.77z"/>
			</g>
		</g>
		<g class="st9">
			<g>
				<path class="st1" d="M365.26,539.25c5.13,0,10.52-2.23,14.14-5.86c1.95-1.81,3.33-3.96,4.14-6.44c1.25-2.38,1.83-4.95,1.72-7.71
					c-0.23-5.17-1.93-10.54-5.86-14.14c-3.91-3.59-8.72-5.86-14.14-5.86c-5.13,0-10.52,2.23-14.14,5.86
					c-1.95,1.81-3.33,3.96-4.14,6.44c-1.25,2.38-1.83,4.95-1.72,7.71c0.23,5.17,1.93,10.54,5.86,14.14
					C355.03,536.98,359.84,539.25,365.26,539.25L365.26,539.25z"/>
			</g>
		</g>
		<g class="st9">
			<g>
				<path class="st1" d="M365.26,603.35c5.13,0,10.52-2.23,14.14-5.86c1.95-1.81,3.33-3.96,4.14-6.44c1.25-2.38,1.83-4.95,1.72-7.71
					c-0.23-5.17-1.93-10.54-5.86-14.14c-3.91-3.59-8.72-5.86-14.14-5.86c-5.13,0-10.52,2.23-14.14,5.86
					c-1.95,1.81-3.33,3.96-4.14,6.44c-1.25,2.38-1.83,4.95-1.72,7.71c0.23,5.17,1.93,10.54,5.86,14.14
					C355.03,601.09,359.84,603.35,365.26,603.35L365.26,603.35z"/>
			</g>
		</g>
		<g class="st9">
			<g>
				<path class="st1" d="M453.92,655.19c5.13,0,10.52-2.23,14.14-5.86c1.95-1.81,3.33-3.96,4.14-6.44c1.25-2.38,1.83-4.95,1.72-7.71
					c-0.23-5.17-1.93-10.54-5.86-14.14c-3.91-3.59-8.72-5.86-14.14-5.86c-5.13,0-10.52,2.23-14.14,5.86
					c-1.95,1.81-3.33,3.96-4.14,6.44c-1.25,2.38-1.83,4.95-1.72,7.71c0.23,5.17,1.93,10.54,5.86,14.14
					C443.69,652.92,448.5,655.19,453.92,655.19L453.92,655.19z"/>
			</g>
		</g>
		<g class="st9">
			<g>
				<path class="st1" d="M440.28,683.83c5.13,0,10.52-2.23,14.14-5.86c1.95-1.81,3.33-3.96,4.14-6.44c1.25-2.38,1.83-4.95,1.72-7.71
					c-0.23-5.17-1.93-10.54-5.86-14.14c-3.91-3.59-8.72-5.86-14.14-5.86c-5.13,0-10.52,2.23-14.14,5.86
					c-1.95,1.81-3.33,3.96-4.14,6.44c-1.25,2.38-1.83,4.95-1.72,7.71c0.23,5.17,1.93,10.54,5.86,14.14
					C430.05,681.57,434.86,683.83,440.28,683.83L440.28,683.83z"/>
			</g>
		</g>
		<g class="st9">
			<g>
				<path class="st1" d="M361.17,700.2c5.13,0,10.52-2.23,14.14-5.86c1.95-1.81,3.33-3.96,4.14-6.44c1.25-2.38,1.83-4.95,1.72-7.71
					c-0.23-5.17-1.93-10.54-5.86-14.14c-3.91-3.59-8.72-5.86-14.14-5.86c-5.13,0-10.52,2.23-14.14,5.86
					c-1.95,1.81-3.33,3.96-4.14,6.44c-1.25,2.38-1.83,4.95-1.72,7.71c0.23,5.17,1.93,10.54,5.86,14.14
					C350.94,697.93,355.75,700.2,361.17,700.2L361.17,700.2z"/>
			</g>
		</g>
		<g class="st9">
			<g>
				<path class="st1" d="M306.61,689.29c5.13,0,10.52-2.23,14.14-5.86c1.95-1.81,3.33-3.96,4.14-6.44c1.25-2.38,1.83-4.95,1.72-7.71
					c-0.23-5.17-1.93-10.54-5.86-14.14c-3.91-3.59-8.72-5.86-14.14-5.86c-5.13,0-10.52,2.23-14.14,5.86
					c-1.95,1.81-3.33,3.96-4.14,6.44c-1.25,2.38-1.83,4.95-1.72,7.71c0.23,5.17,1.93,10.54,5.86,14.14
					C296.38,687.02,301.19,689.29,306.61,689.29L306.61,689.29z"/>
			</g>
		</g>
		<g class="st9">
			<g>
				<path class="st1" d="M322.97,569.25c5.13,0,10.52-2.23,14.14-5.86c1.95-1.81,3.33-3.96,4.14-6.44c1.25-2.38,1.83-4.95,1.72-7.71
					c-0.23-5.17-1.93-10.54-5.86-14.14c-3.91-3.59-8.72-5.86-14.14-5.86c-5.13,0-10.52,2.23-14.14,5.86
					c-1.95,1.81-3.33,3.96-4.14,6.44c-1.25,2.38-1.83,4.95-1.72,7.71c0.23,5.17,1.93,10.54,5.86,14.14
					C312.75,566.99,317.56,569.25,322.97,569.25L322.97,569.25z"/>
			</g>
		</g>
		<g class="st9">
			<g>
				<path class="st1" d="M448.46,363.29c5.13,0,10.52-2.23,14.14-5.86c1.95-1.81,3.33-3.96,4.14-6.44c1.25-2.38,1.83-4.95,1.72-7.71
					c-0.23-5.17-1.93-10.54-5.86-14.14c-3.91-3.59-8.72-5.86-14.14-5.86c-5.13,0-10.52,2.23-14.14,5.86
					c-1.95,1.81-3.33,3.96-4.14,6.44c-1.25,2.38-1.83,4.95-1.72,7.71c0.23,5.17,1.93,10.54,5.86,14.14
					C438.24,361.02,443.05,363.29,448.46,363.29L448.46,363.29z"/>
			</g>
		</g>
		<g class="st9">
			<g>
				<path class="st1" d="M429.37,333.28c5.13,0,10.52-2.23,14.14-5.86c1.95-1.81,3.33-3.96,4.14-6.44c1.25-2.38,1.83-4.95,1.72-7.71
					c-0.23-5.17-1.93-10.54-5.86-14.14c-3.91-3.59-8.72-5.86-14.14-5.86c-5.13,0-10.52,2.23-14.14,5.86
					c-1.95,1.81-3.33,3.96-4.14,6.44c-1.25,2.38-1.83,4.95-1.72,7.71c0.23,5.17,1.93,10.54,5.86,14.14
					C419.14,331.01,423.95,333.28,429.37,333.28L429.37,333.28z"/>
			</g>
		</g>
		<g class="st9">
			<g>
				<path class="st1" d="M429.37,412.39c5.13,0,10.52-2.23,14.14-5.86c1.95-1.81,3.33-3.96,4.14-6.44c1.25-2.38,1.83-4.95,1.72-7.71
					c-0.23-5.17-1.93-10.54-5.86-14.14c-3.91-3.59-8.72-5.86-14.14-5.86c-5.13,0-10.52,2.23-14.14,5.86
					c-1.95,1.81-3.33,3.96-4.14,6.44c-1.25,2.38-1.83,4.95-1.72,7.71c0.23,5.17,1.93,10.54,5.86,14.14
					C419.14,410.13,423.95,412.39,429.37,412.39L429.37,412.39z"/>
			</g>
		</g>
	</g>
</g>
<g id="Layer_10">
	<g>
		<g>
			<path class="st6" d="M656.2,494c0.07,54.11,0.14,108.21,0.22,162.32c0.07,53.83,0.14,107.66,0.21,161.49
				c0.04,30.37,0.08,60.73,0.12,91.1c0,2.57,4,2.58,4,0c-0.07-54.11-0.14-108.21-0.22-162.32c-0.07-53.83-0.14-107.66-0.21-161.49
				c-0.04-30.37-0.08-60.73-0.12-91.1C660.19,491.42,656.19,491.42,656.2,494L656.2,494z"/>
		</g>
	</g>
	<g>
		<g>
			<path class="st6" d="M596.09,562.21c17.86,16.75,34.13,35.19,48.46,55.05c4.02,5.57,7.89,11.26,11.61,17.04
				c1.39,2.16,4.85,0.15,3.45-2.02c-13.35-20.75-28.67-40.24-45.72-58.08c-4.85-5.08-9.85-10.02-14.97-14.82
				C597.04,557.62,594.21,560.44,596.09,562.21L596.09,562.21z"/>
		</g>
	</g>
	<g>
		<g>
			<path class="st6" d="M659.92,556.45c6.86-14.52,17.08-27.23,29.79-37.06c0.86-0.66,0.7-2.13,0-2.83c-0.84-0.84-1.97-0.66-2.83,0
				c-12.93,10.01-23.43,23.09-30.41,37.87C655.37,556.75,658.82,558.78,659.92,556.45L659.92,556.45z"/>
		</g>
	</g>
	<g>
		<g>
			<path class="st6" d="M770.94,356.97c-1.49,70.46,14.12,139.74,21.48,209.49c7.39,70.03,9.01,140.52,8.55,210.89
				c-0.26,39.86-1.19,79.72-2.13,119.57c-0.06,2.57,3.94,2.57,4,0c1.66-70.78,3.31-141.61,1.22-212.4
				c-1.04-35.16-3.01-70.3-6.36-105.32c-3.33-34.74-8.53-69.21-13.4-103.75c-5.53-39.25-10.21-78.76-9.37-118.47
				C774.99,354.4,770.99,354.4,770.94,356.97L770.94,356.97z"/>
		</g>
	</g>
	<g>
		<g>
			<path class="st6" d="M725.96,377.98c15.21,26.38,29.9,53.07,44.05,80.04c4.01,7.64,7.98,15.31,11.9,23
				c1.17,2.29,4.62,0.27,3.45-2.02c-13.85-27.12-28.23-53.97-43.14-80.53c-4.23-7.53-8.5-15.03-12.81-22.51
				C728.13,373.73,724.67,375.75,725.96,377.98L725.96,377.98z"/>
		</g>
	</g>
	<g>
		<g>
			<path class="st6" d="M778.76,407.4c7.71-14.22,17.12-27.49,28.05-39.41c3.09-3.37,6.3-6.63,9.62-9.78
				c1.87-1.78-0.96-4.6-2.83-2.83c-11.91,11.32-22.43,24.11-31.24,37.98c-2.49,3.92-4.84,7.93-7.06,12.02
				C774.08,407.64,777.53,409.66,778.76,407.4L778.76,407.4z"/>
		</g>
	</g>
	<g class="st7">
		<path class="st5" d="M636.06,361.25c-34.17,26.35-66.76,55.61-90.95,91.34c-24.2,35.73-39.59,78.63-36.68,121.68
			c0.83,12.22,3.19,24.58,9.18,35.26c5.38,9.61,13.46,17.44,22.07,24.29c48.93,38.91,119.87,47.9,176.96,22.4
			c15.25-6.81,29.86-16.19,39.54-29.8c7.85-11.03,12.07-24.28,14.33-37.63c6.99-41.22-4-84.05-24.13-120.69
			c-20.13-36.64-48.95-67.77-79.37-96.45c-5.62-5.3-11.54-10.67-18.87-13.1s-16.47-1.13-21.06,5.08"/>
	</g>
	<g class="st7">
		<path class="st5" d="M820.18,516.7c-31.61,8.98-66.34,6.55-96.39-6.75c-15.63-6.92-30.51-17.24-38.58-32.31
			c-4.88-9.11-7.01-19.46-8.15-29.73c-7.59-68.17,25.28-134.08,62.4-191.76c12.02-18.68,24.88-37.31,42.35-51.02
			c2.06-1.62,4.37-3.23,6.99-3.26c3.3-0.04,6.06,2.41,8.31,4.82c5.23,5.61,9.72,11.85,14.01,18.2
			c33.77,50.01,55.77,107.9,63.75,167.71c3.55,26.63,4.2,54.58-6.03,79.42c-10.23,24.84-33.54,45.79-60.39,46.35"/>
	</g>
</g>
<g id="Layer_9">
	<g>
		<g>
			<path class="st6" d="M1357.19,869.2c-1.58-52.87-3.16-105.73-4.74-158.6c-1.57-52.59-3.15-105.17-4.71-157.76
				c-0.83-28-1.6-56.34,5.56-83.46c0.8-3.03-1.01-6.66-4.19-7.38c-3.14-0.72-6.52,0.94-7.38,4.19c-6.6,24.99-6.91,51.03-6.27,76.7
				c0.66,26.27,1.55,52.53,2.34,78.8c1.58,52.87,3.16,105.73,4.74,158.6c0.89,29.64,1.77,59.28,2.66,88.91c0.09,3.13,2.69,6.15,6,6
				C1354.36,875.06,1357.29,872.56,1357.19,869.2L1357.19,869.2z"/>
		</g>
	</g>
	<g>
		<g>
			<path class="st6" d="M1346.48,584.09c-2.17-24.2,6.34-48.9,22.66-66.93c4.57-5.04,9.68-9.54,15.3-13.32
				c1.34-0.9,1.93-2.64,1.08-4.1c-0.78-1.33-2.75-1.99-4.1-1.08c-10.77,7.25-19.85,16.78-26.74,27.78
				c-6.79,10.85-11.46,23.15-13.41,35.81c-1.12,7.23-1.44,14.54-0.79,21.84c0.14,1.61,1.28,3,3,3
				C1344.99,587.09,1346.63,585.71,1346.48,584.09L1346.48,584.09z"/>
		</g>
	</g>
	<g>
		<g>
			<path class="st6" d="M1341.77,650.01c-11.15-11.49-20.96-24.15-31.18-36.44c-9.83-11.83-20.28-23.07-31.55-33.55
				c-11.19-10.41-23.01-20.12-35.18-29.35c-12.09-9.16-24.54-17.83-37.17-26.22c-12.65-8.4-25.48-16.53-38.33-24.62
				c-1.61-1.01-3.22-2.03-4.83-3.04c-3.28-2.06-6.29,3.13-3.03,5.18c12.79,8.04,25.57,16.09,38.2,24.38
				c12.68,8.33,25.21,16.9,37.4,25.95c11.98,8.89,23.62,18.26,34.68,28.28c11.32,10.24,21.97,21.17,31.85,32.81
				c10.3,12.13,19.96,24.81,30.76,36.51c1.36,1.48,2.74,2.93,4.14,4.37C1340.22,657.03,1344.46,652.79,1341.77,650.01
				L1341.77,650.01z"/>
		</g>
	</g>
	<g class="st10">
		<path class="st11" d="M1253.68,492.42c-41.05,14.23-82.11,28.45-123.16,42.68c-37.82,13.1-79.85,26.15-116.76,10.69
			c-34.98-14.65-55.69-51.73-64.26-88.67c-5.1-21.96-6.84-44.94-2.75-67.11c7.68-41.6,35.8-77.67,71.05-101.06
			s77.13-35.15,119.09-40.56c31.46-4.05,65.1-4.33,92.9,10.95c23.11,12.7,39.64,34.87,51.59,58.37
			c16.19,31.85,25.27,68.56,18.23,103.59s-32.47,67.51-67.09,76.34"/>
	</g>
	<g class="st12">
		<path class="st11" d="M1363.61,470.74c-42.23,13.75-92.15-7.65-113.94-46.34s-15.39-90.41,12.83-124.69
			c37.39-45.4,101.71-56.89,160.47-59.52c29.67-1.33,62.11-0.27,84.93,18.73c10.92,9.09,18.57,21.59,23.9,34.76
			c20.27,50.06,6.66,110.6-29.12,151.05c-35.78,40.45-91.02,61.19-145.02,60.15c-8.69-0.17-17.79-0.99-25.1-5.69
			c-7.31-4.7-12.08-14.41-8.56-22.36"/>
	</g>
	<g class="st13">
		<path class="st11" d="M1396.79,522.43c-15.03-9.76-18.89-29.83-20.13-47.7c-0.99-14.34-1.17-28.73-0.52-43.09
			c0.31-7.01,0.86-14.16,3.51-20.66c2.69-6.59,7.42-12.17,12.65-17.01c27.28-25.23,67.48-31.29,104.53-28.37
			c13.08,1.03,26.58,3.2,37.47,10.53c7.38,4.97,13.14,12.05,17.68,19.7c12.83,21.57,16.4,47.27,18.8,72.25
			c0.91,9.42,1.63,19.24-1.78,28.07c-5.55,14.34-20.44,22.5-34.47,28.78c-31.47,14.07-66.18,24.88-100.09,18.69
			c-15.27-2.79-30.42-9.4-40.27-21.4"/>
	</g>
	<g>
		<g>
			<path class="st6" d="M1348.04,736.97c5.6-16.72,15.43-31.91,28.25-44c3.57-3.37,7.36-6.48,11.37-9.31
				c1.32-0.93,1.94-2.62,1.08-4.1c-0.76-1.31-2.77-2.02-4.1-1.08c-15.29,10.79-27.87,25.31-36.23,42.07
				c-2.39,4.79-4.44,9.75-6.14,14.82c-0.51,1.54,0.59,3.28,2.1,3.69C1345.98,739.51,1347.52,738.51,1348.04,736.97L1348.04,736.97z"
				/>
		</g>
	</g>
	<g class="st14">
		<path class="st15" d="M1388.29,695.11c-5.75-23.21-11.49-46.42-17.24-69.63c-2.07-8.38-4.16-17.1-2.38-25.55
			c4.96-23.57,34.45-30.89,58.4-33.48c5.08-0.55,10.49-1.05,15.06,1.24c3.69,1.85,6.31,5.26,8.69,8.63
			c24.93,35.34,37.57,79.18,35.29,122.37c-0.22,4.2-0.64,8.59-2.92,12.13c-1.99,3.09-5.18,5.18-8.36,7.01
			c-16.38,9.43-35.9,14.52-54.42,10.71c-18.51-3.81-35.45-17.68-39.76-36.08"/>
	</g>
</g>
<g id="Layer_7">
	<g>
		<g>
			<g>
				<path class="st16" d="M1789.39,877.88c2.03-71.38,4.34-142.76,6.07-214.15c0.4-16.46,0.29-33.09-3.17-49.26
					c-3.2-14.96-13.46-29.82-11.25-45.5c1.12-7.92,4.35-15.4,6.49-23.07c2.08-7.45,3.08-15.22,3.14-22.95
					c0.11-15.4-3.26-30.6-6.29-45.62c-3.63-17.97-6.19-35.55-3.34-53.84c2.78-17.89,7.29-35.84,2.42-53.8
					c-2.02-7.44-13.6-4.29-11.57,3.19c4.35,16.05-0.14,32.34-2.56,48.32c-2.37,15.65-1.69,30.71,1,46.28
					c2.64,15.33,6.76,30.48,7.99,46.02c0.61,7.72,0.59,15.6-0.91,23.22c-1.55,7.85-4.63,15.25-6.64,22.98
					c-1.89,7.3-2.58,14.65-1.28,22.11c1.34,7.63,4.62,14.7,7.24,21.94c5.71,15.72,6.95,32.28,6.91,48.89
					c-0.08,34.79-1.82,69.64-2.8,104.42c-1.14,40.27-2.29,80.55-3.43,120.82C1777.17,885.6,1789.17,885.6,1789.39,877.88
					L1789.39,877.88z"/>
			</g>
		</g>
		<g>
			<g>
				<path class="st16" d="M1726.74,487.42c-0.68,10.86-0.68,21.84,1.81,32.5c2.13,9.12,6.3,17.69,11.13,25.67
					c9.4,15.5,21.87,29.59,27.06,47.28c2.17,7.39,13.76,4.25,11.57-3.19c-5.08-17.29-16.24-31.29-25.82-46.22
					c-4.68-7.29-9.02-14.9-11.47-23.26c-3.12-10.66-2.98-21.8-2.29-32.78C1739.22,479.71,1727.22,479.74,1726.74,487.42
					L1726.74,487.42z"/>
			</g>
		</g>
		<g>
			<g>
				<path class="st16" d="M1872.26,381.1c-2.18,12.11-11.37,22.27-18.92,31.54c-7.96,9.78-16.48,19.11-25.51,27.92
					c-8.96,8.75-18.43,16.91-28.28,24.64c-9.24,7.25-18.33,14.67-24.15,25.09c-3.77,6.75,6.59,12.81,10.36,6.06
					c5.81-10.42,15.62-17.38,24.79-24.64c10.34-8.2,20.2-17,29.5-26.37c9.09-9.16,17.64-18.85,25.6-29.01
					c7.52-9.61,15.93-19.68,18.16-32.02C1885.2,376.74,1873.63,373.5,1872.26,381.1L1872.26,381.1z"/>
			</g>
		</g>
		<g>
			<g>
				<path class="st16" d="M1654.46,872.89c2.09-46.37-7.36-92.06-16.2-137.31c-9.03-46.23-15.39-92.34-14.84-139.55
					c0.27-23.53,1.94-47.06,5.03-70.39c3.11-23.45,8.36-46.49,12.33-69.79c3.95-23.16,5.91-46.29,2.81-69.68
					c-3.09-23.35-9.13-46.22-13.2-69.4c-9.23-52.54-13.49-105.78-17.78-158.91c-4,0-8,0-12,0c1.05,8.45,2.1,16.89,3.16,25.34
					c0.94,7.56,12.95,7.66,12,0c-1.05-8.45-2.1-16.89-3.16-25.34c-0.93-7.47-12.63-7.82-12,0c3.8,47.1,7.65,94.24,14.75,140.98
					c3.56,23.41,8.58,46.46,13.16,69.68c4.64,23.53,5.9,46.59,2.79,70.42c-3.06,23.5-8.78,46.57-12.47,69.98
					c-3.64,23.09-6.01,46.39-6.98,69.75c-1.93,46.88,2.34,93.36,10.86,139.44c9.46,51.18,22.09,102.34,19.73,154.78
					C1642.11,880.61,1654.11,880.59,1654.46,872.89L1654.46,872.89z"/>
			</g>
		</g>
		<g>
			<g>
				<path class="st16" d="M1525.69,204.58c7.75,9.55,15.5,19.1,23.25,28.65c7.76,9.56,15.03,20.18,23.58,29.03
					c4.81,4.98,11.1,4.84,16.77,1.4c4.01-2.44,9.38-8.94,14.57-7.87c7.54,1.56,10.76-10,3.19-11.57c-6.73-1.39-12.5,0.91-17.92,4.82
					c-2.14,1.54-4.51,4-7.02,4.91c-0.46,0.16-1.37,0.25-0.72,0.39c-0.61-0.13-2.09-2.62-2.61-3.26
					c-14.87-18.33-29.74-36.65-44.61-54.98C1529.31,190.1,1520.87,198.63,1525.69,204.58L1525.69,204.58z"/>
			</g>
		</g>
		<g>
			<g>
				<path class="st16" d="M1702.55,353.4c2.88,15.54-8.18,31.02-15.17,44c-8.33,15.46-16.66,30.93-24.99,46.39
					c-16.5,30.63-33.01,61.27-49.51,91.9c-3.66,6.8,6.69,12.87,10.36,6.06c17.45-32.38,34.89-64.77,52.34-97.15
					c8.65-16.05,17.29-32.09,25.94-48.14c7.79-14.45,15.75-29.32,12.61-46.25C1712.71,342.62,1701.15,345.84,1702.55,353.4
					L1702.55,353.4z"/>
			</g>
		</g>
		<g class="st17">
			<g>
				<path class="st18" d="M1533.28,657.39c15.38,0,31.55-6.69,42.43-17.57c10.41-10.41,18.24-27.48,17.57-42.43
					c-0.69-15.52-5.79-31.61-17.57-42.43c-11.74-10.78-26.17-17.57-42.43-17.57c-15.38,0-31.55,6.69-42.43,17.57
					c-10.41,10.41-18.24,27.48-17.57,42.43c0.7,15.52,5.79,31.61,17.57,42.43C1502.6,650.6,1517.03,657.39,1533.28,657.39
					L1533.28,657.39z"/>
			</g>
		</g>
		<g class="st17">
			<g>
				<path class="st18" d="M1601.17,501.58c15.38,0,31.55-6.69,42.43-17.57c10.41-10.41,18.24-27.48,17.57-42.43
					c-0.7-15.52-5.79-31.61-17.57-42.43c-11.74-10.78-26.17-17.57-42.43-17.57c-15.38,0-31.55,6.69-42.43,17.57
					c-10.41,10.41-18.24,27.48-17.57,42.43c0.7,15.52,5.79,31.61,17.57,42.43C1570.48,494.78,1584.91,501.58,1601.17,501.58
					L1601.17,501.58z"/>
			</g>
		</g>
		<g class="st17">
			<g>
				<path class="st18" d="M1546.42,469.07c15.38,0,31.55-6.69,42.43-17.57c10.41-10.41,18.24-27.48,17.57-42.43
					c-0.7-15.52-5.79-31.61-17.57-42.43c-11.74-10.78-26.17-17.57-42.43-17.57c-15.38,0-31.55,6.69-42.43,17.57
					c-10.41,10.41-18.24,27.48-17.57,42.43c0.69,15.52,5.79,31.61,17.57,42.43C1515.74,462.28,1530.17,469.07,1546.42,469.07
					L1546.42,469.07z"/>
			</g>
		</g>
		<g class="st17">
			<g>
				<path class="st18" d="M1487.3,285.13c15.38,0,31.55-6.69,42.43-17.57c10.41-10.41,18.24-27.48,17.57-42.43
					c-0.69-15.52-5.79-31.61-17.57-42.43c-11.74-10.78-26.17-17.57-42.43-17.57c-15.38,0-31.55,6.69-42.43,17.57
					c-10.41,10.41-18.24,27.48-17.57,42.43c0.7,15.52,5.79,31.61,17.57,42.43C1456.61,278.34,1471.04,285.13,1487.3,285.13
					L1487.3,285.13z"/>
			</g>
		</g>
		<g class="st17">
			<g>
				<path class="st18" d="M1682.19,234.42c15.38,0,31.55-6.69,42.43-17.57c10.41-10.41,18.24-27.48,17.57-42.43
					c-0.7-15.52-5.79-31.61-17.57-42.43c-11.74-10.78-26.17-17.57-42.43-17.57c-15.38,0-31.55,6.69-42.43,17.57
					c-10.41,10.41-18.24,27.48-17.57,42.43c0.7,15.52,5.79,31.61,17.57,42.43C1651.5,227.63,1665.93,234.42,1682.19,234.42
					L1682.19,234.42z"/>
			</g>
		</g>
		<g class="st17">
			<g>
				<path class="st18" d="M1555.18,184.4c15.38,0,31.55-6.69,42.43-17.57c10.41-10.41,18.24-27.48,17.57-42.43
					c-0.7-15.52-5.79-31.61-17.57-42.43c-11.74-10.78-26.17-17.57-42.43-17.57c-15.38,0-31.55,6.69-42.43,17.57
					c-10.41,10.41-18.24,27.48-17.57,42.43c0.7,15.52,5.79,31.61,17.57,42.43C1524.49,177.61,1538.92,184.4,1555.18,184.4
					L1555.18,184.4z"/>
			</g>
		</g>
		<g class="st17">
			<g>
				<path class="st18" d="M1688.76,409.61c15.38,0,31.55-6.69,42.43-17.57c10.41-10.41,18.24-27.48,17.57-42.43
					c-0.7-15.52-5.79-31.61-17.57-42.43c-11.74-10.78-26.17-17.57-42.43-17.57c-15.38,0-31.55,6.69-42.43,17.57
					c-10.41,10.41-18.24,27.48-17.57,42.43c0.69,15.52,5.79,31.61,17.57,42.43C1658.07,402.81,1672.5,409.61,1688.76,409.61
					L1688.76,409.61z"/>
			</g>
		</g>
		<g class="st17">
			<g>
				<path class="st18" d="M1826.71,409.61c15.38,0,31.55-6.69,42.43-17.57c10.41-10.41,18.24-27.48,17.57-42.43
					c-0.69-15.52-5.79-31.61-17.57-42.43c-11.74-10.78-26.17-17.57-42.43-17.57c-15.38,0-31.55,6.69-42.43,17.57
					c-10.41,10.41-18.24,27.48-17.57,42.43c0.7,15.52,5.79,31.61,17.57,42.43C1796.03,402.81,1810.46,409.61,1826.71,409.61
					L1826.71,409.61z"/>
			</g>
		</g>
		<g class="st17">
			<g>
				<path class="st18" d="M1723.79,536.61c15.38,0,31.55-6.69,42.43-17.57c10.41-10.41,18.24-27.48,17.57-42.43
					c-0.7-15.52-5.79-31.61-17.57-42.43c-11.74-10.78-26.17-17.57-42.43-17.57c-15.38,0-31.55,6.69-42.43,17.57
					c-10.41,10.41-18.24,27.48-17.57,42.43c0.69,15.52,5.79,31.61,17.57,42.43C1693.11,529.81,1707.54,536.61,1723.79,536.61
					L1723.79,536.61z"/>
			</g>
		</g>
		<g class="st17">
			<g>
				<path class="st18" d="M1833.28,648.29c15.38,0,31.55-6.69,42.43-17.57c10.41-10.41,18.24-27.48,17.57-42.43
					c-0.7-15.52-5.79-31.61-17.57-42.43c-11.74-10.78-26.17-17.57-42.43-17.57c-15.38,0-31.55,6.69-42.43,17.57
					c-10.41,10.41-18.24,27.48-17.57,42.43c0.7,15.52,5.79,31.61,17.57,42.43C1802.6,641.49,1817.03,648.29,1833.28,648.29
					L1833.28,648.29z"/>
			</g>
		</g>
		<g>
			<g>
				<path class="st18" d="M1531.09,360.72c12.31,0,25.24-5.35,33.94-14.06c8.33-8.33,14.59-21.98,14.06-33.94
					c-1.16-26.01-21.09-48-48-48c-12.31,0-25.24,5.35-33.94,14.06c-8.33,8.33-14.59,21.98-14.06,33.94
					C1484.26,338.73,1504.18,360.72,1531.09,360.72L1531.09,360.72z"/>
			</g>
		</g>
		<g class="st19">
			<g>
				<path class="st18" d="M1732.55,283.74c12.31,0,25.24-5.35,33.94-14.06c8.33-8.33,14.59-21.98,14.06-33.94
					c-1.16-26.01-21.09-48-48-48c-12.31,0-25.24,5.35-33.94,14.06c-8.33,8.33-14.59,21.98-14.06,33.94
					C1685.72,261.74,1705.64,283.74,1732.55,283.74L1732.55,283.74z"/>
			</g>
		</g>
		<g class="st19">
			<g>
				<path class="st18" d="M1638.39,316.58c12.31,0,25.24-5.35,33.94-14.06c8.33-8.33,14.59-21.98,14.06-33.94
					c-1.16-26.01-21.09-48-48-48c-12.31,0-25.24,5.35-33.94,14.06c-8.33,8.33-14.59,21.98-14.06,33.94
					C1591.56,294.59,1611.48,316.58,1638.39,316.58L1638.39,316.58z"/>
			</g>
		</g>
		<g class="st19">
			<g>
				<path class="st18" d="M1763.21,447.97c12.31,0,25.24-5.35,33.94-14.06c8.33-8.33,14.59-21.98,14.06-33.94
					c-1.16-26.01-21.09-48-48-48c-12.31,0-25.24,5.35-33.94,14.06c-8.33,8.33-14.59,21.98-14.06,33.94
					C1716.37,425.98,1736.3,447.97,1763.21,447.97L1763.21,447.97z"/>
			</g>
		</g>
		<g class="st19">
			<g>
				<path class="st18" d="M1590.22,240.29c12.31,0,25.24-5.35,33.94-14.06c8.33-8.33,14.59-21.98,14.06-33.94
					c-1.16-26.01-21.09-48-48-48c-12.31,0-25.24,5.35-33.94,14.06c-8.33,8.33-14.59,21.98-14.06,33.94
					C1543.38,218.29,1563.31,240.29,1590.22,240.29L1590.22,240.29z"/>
			</g>
		</g>
		<g class="st19">
			<g>
				<path class="st18" d="M1844.23,528.99c12.31,0,25.24-5.35,33.94-14.06c8.33-8.33,14.59-21.98,14.06-33.94
					c-1.16-26.01-21.09-48-48-48c-12.31,0-25.24,5.35-33.94,14.06c-8.33,8.33-14.59,21.98-14.06,33.94
					C1797.4,507,1817.32,528.99,1844.23,528.99L1844.23,528.99z"/>
			</g>
		</g>
		<g class="st19">
			<g>
				<path class="st18" d="M1754.45,594.68c12.31,0,25.24-5.35,33.94-14.06c8.33-8.33,14.59-21.98,14.06-33.94
					c-1.16-26.01-21.09-48-48-48c-12.31,0-25.24,5.35-33.94,14.06c-8.33,8.33-14.59,21.98-14.06,33.94
					C1707.62,572.69,1727.54,594.68,1754.45,594.68L1754.45,594.68z"/>
			</g>
		</g>
		<g class="st19">
			<g>
				<path class="st18" d="M1629.63,599.06c12.31,0,25.24-5.35,33.94-14.06c8.33-8.33,14.59-21.98,14.06-33.94
					c-1.16-26.01-21.09-48-48-48c-12.31,0-25.24,5.35-33.94,14.06c-8.33,8.33-14.59,21.98-14.06,33.94
					C1582.8,577.07,1602.72,599.06,1629.63,599.06L1629.63,599.06z"/>
			</g>
		</g>
		<g class="st19">
			<g>
				<path class="st18" d="M1758.83,366.95c12.31,0,25.24-5.35,33.94-14.06c8.33-8.33,14.59-21.98,14.06-33.94
					c-1.16-26.01-21.09-48-48-48c-12.31,0-25.24,5.35-33.94,14.06c-8.33,8.33-14.59,21.98-14.06,33.94
					C1712,344.96,1731.92,366.95,1758.83,366.95L1758.83,366.95z"/>
			</g>
		</g>
		<g class="st19">
			<g>
				<path class="st18" d="M1842.04,635.62c4.41,0.17,8.52-0.75,12.33-2.76c3.97-1.29,7.4-3.5,10.3-6.62
					c3.12-2.9,5.33-6.33,6.62-10.3c2-3.81,2.92-7.92,2.76-12.33c-0.38-2.84-0.76-5.67-1.14-8.51c-1.52-5.42-4.26-10.13-8.23-14.12
					c-2.16-1.67-4.32-3.34-6.48-5c-4.99-2.89-10.37-4.35-16.15-4.37c-4.41-0.17-8.52,0.75-12.33,2.76c-3.97,1.29-7.4,3.5-10.3,6.62
					c-3.12,2.9-5.33,6.33-6.62,10.3c-2,3.81-2.92,7.92-2.76,12.33c0.38,2.84,0.76,5.67,1.14,8.51c1.52,5.42,4.26,10.13,8.23,14.12
					c2.16,1.67,4.32,3.34,6.48,5C1830.88,634.14,1836.27,635.6,1842.04,635.62L1842.04,635.62z"/>
			</g>
		</g>
		<g class="st19">
			<g>
				<path class="st18" d="M1693.14,506.42c4.41,0.17,8.52-0.75,12.33-2.76c3.97-1.29,7.4-3.5,10.3-6.62
					c3.12-2.9,5.33-6.33,6.62-10.3c2-3.81,2.92-7.92,2.76-12.33c-0.38-2.84-0.76-5.67-1.14-8.51c-1.52-5.42-4.26-10.13-8.23-14.12
					c-2.16-1.67-4.32-3.34-6.48-5c-4.99-2.89-10.37-4.35-16.15-4.37c-4.41-0.17-8.52,0.75-12.33,2.76c-3.97,1.29-7.4,3.5-10.3,6.62
					c-3.12,2.9-5.33,6.33-6.62,10.3c-2,3.81-2.92,7.92-2.76,12.33c0.38,2.84,0.76,5.67,1.14,8.51c1.52,5.42,4.26,10.13,8.23,14.12
					c2.16,1.67,4.32,3.34,6.48,5C1681.98,504.95,1687.36,506.4,1693.14,506.42L1693.14,506.42z"/>
			</g>
		</g>
		<g class="st19">
			<g>
				<path class="st18" d="M1616.5,495.47c4.41,0.17,8.52-0.75,12.33-2.76c3.97-1.29,7.4-3.5,10.3-6.62c3.12-2.9,5.33-6.33,6.62-10.3
					c2-3.81,2.92-7.92,2.76-12.33c-0.38-2.84-0.76-5.67-1.14-8.51c-1.52-5.42-4.26-10.13-8.23-14.12c-2.16-1.67-4.32-3.34-6.48-5
					c-4.99-2.89-10.37-4.35-16.15-4.37c-4.41-0.17-8.52,0.75-12.33,2.76c-3.97,1.29-7.4,3.5-10.3,6.62
					c-3.12,2.9-5.33,6.33-6.62,10.3c-2,3.81-2.92,7.92-2.76,12.33c0.38,2.84,0.76,5.67,1.14,8.51c1.52,5.42,4.26,10.13,8.23,14.12
					c2.16,1.67,4.32,3.34,6.48,5C1605.34,494,1610.72,495.46,1616.5,495.47L1616.5,495.47z"/>
			</g>
		</g>
		<g class="st19">
			<g>
				<path class="st18" d="M1761.02,302.77c4.41,0.17,8.52-0.75,12.33-2.76c3.97-1.29,7.4-3.5,10.3-6.62
					c3.12-2.9,5.33-6.33,6.62-10.3c2-3.81,2.92-7.92,2.76-12.33c-0.38-2.84-0.76-5.67-1.14-8.51c-1.52-5.42-4.26-10.13-8.23-14.12
					c-2.16-1.67-4.32-3.34-6.48-5c-4.99-2.89-10.37-4.35-16.15-4.37c-4.41-0.17-8.52,0.75-12.33,2.76c-3.97,1.29-7.4,3.5-10.3,6.62
					c-3.12,2.9-5.33,6.33-6.62,10.3c-2,3.81-2.92,7.92-2.76,12.33c0.38,2.84,0.76,5.67,1.14,8.51c1.52,5.42,4.26,10.13,8.23,14.12
					c2.16,1.67,4.32,3.34,6.48,5C1749.86,301.3,1755.24,302.76,1761.02,302.77L1761.02,302.77z"/>
			</g>
		</g>
		<g class="st19">
			<g>
				<path class="st18" d="M1697.52,210.8c4.41,0.17,8.52-0.75,12.33-2.76c3.97-1.29,7.4-3.5,10.3-6.62c3.12-2.9,5.33-6.33,6.62-10.3
					c2-3.81,2.92-7.92,2.76-12.33c-0.38-2.84-0.76-5.67-1.14-8.51c-1.52-5.42-4.26-10.13-8.23-14.12c-2.16-1.67-4.32-3.34-6.48-5
					c-4.99-2.89-10.37-4.35-16.15-4.37c-4.41-0.17-8.52,0.75-12.33,2.76c-3.97,1.29-7.4,3.5-10.3,6.62
					c-3.12,2.9-5.33,6.33-6.62,10.3c-2,3.81-2.92,7.92-2.76,12.33c0.38,2.84,0.76,5.67,1.14,8.51c1.52,5.42,4.26,10.13,8.23,14.12
					c2.16,1.67,4.32,3.34,6.48,5C1686.36,209.33,1691.74,210.79,1697.52,210.8L1697.52,210.8z"/>
			</g>
		</g>
		<g class="st19">
			<g>
				<path class="st18" d="M1649.34,298.39c4.41,0.17,8.52-0.75,12.33-2.76c3.97-1.29,7.4-3.5,10.3-6.62
					c3.12-2.9,5.33-6.33,6.62-10.3c2-3.81,2.92-7.92,2.76-12.33c-0.38-2.84-0.76-5.67-1.14-8.51c-1.52-5.42-4.26-10.13-8.23-14.12
					c-2.16-1.67-4.32-3.34-6.48-5c-4.99-2.89-10.37-4.35-16.15-4.37c-4.41-0.17-8.52,0.75-12.33,2.76c-3.97,1.29-7.4,3.5-10.3,6.62
					c-3.12,2.9-5.33,6.33-6.62,10.3c-2,3.81-2.92,7.92-2.76,12.33c0.38,2.84,0.76,5.67,1.14,8.51c1.52,5.42,4.26,10.13,8.23,14.12
					c2.16,1.67,4.32,3.34,6.48,5C1638.18,296.92,1643.57,298.38,1649.34,298.39L1649.34,298.39z"/>
			</g>
		</g>
		<g class="st19">
			<g>
				<path class="st18" d="M1828.9,381.61c4.41,0.17,8.52-0.75,12.33-2.76c3.97-1.29,7.4-3.5,10.3-6.62c3.12-2.9,5.33-6.33,6.62-10.3
					c2-3.81,2.92-7.92,2.76-12.33c-0.38-2.84-0.76-5.67-1.14-8.51c-1.52-5.42-4.26-10.13-8.23-14.12c-2.16-1.67-4.32-3.34-6.48-5
					c-4.99-2.89-10.37-4.35-16.15-4.37c-4.41-0.17-8.52,0.75-12.33,2.76c-3.97,1.29-7.4,3.5-10.3,6.62
					c-3.12,2.9-5.33,6.33-6.62,10.3c-2,3.81-2.92,7.92-2.76,12.33c0.38,2.84,0.76,5.67,1.14,8.51c1.52,5.42,4.26,10.13,8.23,14.12
					c2.16,1.67,4.32,3.34,6.48,5C1817.74,380.13,1823.13,381.59,1828.9,381.61L1828.9,381.61z"/>
			</g>
		</g>
		<g class="st19">
			<g>
				<path class="st18" d="M1883.65,418.83c4.41,0.17,8.52-0.75,12.33-2.76c3.97-1.29,7.4-3.5,10.3-6.62
					c3.12-2.9,5.33-6.33,6.62-10.3c2-3.81,2.92-7.92,2.76-12.33c-0.38-2.84-0.76-5.67-1.14-8.51c-1.52-5.42-4.26-10.13-8.23-14.12
					c-2.16-1.67-4.32-3.34-6.48-5c-4.99-2.89-10.37-4.35-16.15-4.37c-4.41-0.17-8.52,0.75-12.33,2.76c-3.97,1.29-7.4,3.5-10.3,6.62
					c-3.12,2.9-5.33,6.33-6.62,10.3c-2,3.81-2.92,7.92-2.76,12.33c0.38,2.84,0.76,5.67,1.14,8.51c1.52,5.42,4.26,10.13,8.23,14.12
					c2.16,1.67,4.32,3.34,6.48,5C1872.49,417.36,1877.87,418.81,1883.65,418.83L1883.65,418.83z"/>
			</g>
		</g>
		<g class="st19">
			<g>
				<path class="st18" d="M1522.34,235.23c4.41,0.17,8.52-0.75,12.33-2.76c3.97-1.29,7.4-3.5,10.3-6.62
					c3.12-2.9,5.33-6.33,6.62-10.3c2-3.81,2.92-7.92,2.76-12.33c-0.38-2.84-0.76-5.67-1.14-8.51c-1.52-5.42-4.26-10.13-8.23-14.12
					c-2.16-1.67-4.32-3.34-6.48-5c-4.99-2.89-10.37-4.35-16.15-4.37c-4.41-0.17-8.52,0.75-12.33,2.76c-3.97,1.29-7.4,3.5-10.3,6.62
					c-3.12,2.9-5.33,6.33-6.62,10.3c-2,3.81-2.92,7.92-2.76,12.33c0.38,2.84,0.76,5.67,1.14,8.51c1.52,5.42,4.26,10.13,8.23,14.12
					c2.16,1.67,4.32,3.34,6.48,5C1511.18,233.76,1516.56,235.22,1522.34,235.23L1522.34,235.23z"/>
			</g>
		</g>
		<g class="st19">
			<g>
				<path class="st18" d="M1552.99,534.56c4.1,0,8.41-1.78,11.31-4.69c2.78-2.78,4.86-7.33,4.69-11.31
					c-0.19-4.14-1.54-8.43-4.69-11.31c-3.13-2.87-6.98-4.69-11.31-4.69c-4.1,0-8.41,1.78-11.31,4.69
					c-2.78,2.78-4.86,7.33-4.69,11.31c0.19,4.14,1.54,8.43,4.69,11.31C1544.81,532.75,1548.66,534.56,1552.99,534.56L1552.99,534.56
					z"/>
			</g>
		</g>
		<g class="st19">
			<g>
				<path class="st18" d="M1594.6,355c4.1,0,8.41-1.78,11.31-4.69c2.78-2.78,4.86-7.33,4.69-11.31c-0.19-4.14-1.54-8.43-4.69-11.31
					c-3.13-2.87-6.98-4.69-11.31-4.69c-4.1,0-8.41,1.78-11.31,4.69c-2.78,2.78-4.86,7.33-4.69,11.31c0.19,4.14,1.54,8.43,4.69,11.31
					C1586.41,353.19,1590.26,355,1594.6,355L1594.6,355z"/>
			</g>
		</g>
		<g class="st19">
			<g>
				<path class="st18" d="M1796.06,446.63c4.1,0,8.41-1.78,11.31-4.69c2.78-2.78,4.86-7.33,4.69-11.31
					c-0.19-4.14-1.54-8.43-4.69-11.31c-3.13-2.87-6.98-4.69-11.31-4.69c-4.1,0-8.41,1.78-11.31,4.69
					c-2.78,2.78-4.86,7.33-4.69,11.31c0.19,4.14,1.54,8.43,4.69,11.31C1787.87,444.81,1791.72,446.63,1796.06,446.63L1796.06,446.63
					z"/>
			</g>
		</g>
		<g class="st19">
			<g>
				<path class="st18" d="M1791.68,527.65c4.1,0,8.41-1.78,11.31-4.69c2.78-2.78,4.86-7.33,4.69-11.31
					c-0.19-4.14-1.54-8.43-4.69-11.31c-3.13-2.87-6.98-4.69-11.31-4.69c-4.1,0-8.41,1.78-11.31,4.69
					c-2.78,2.78-4.86,7.33-4.69,11.31c0.19,4.14,1.54,8.43,4.69,11.31C1783.49,525.84,1787.34,527.65,1791.68,527.65L1791.68,527.65
					z"/>
			</g>
		</g>
		<g class="st19">
			<g>
				<path class="st18" d="M1615.08,722.76c18.46,0,37.85-8.03,50.91-21.09c7.02-6.52,11.98-14.25,14.89-23.17
					c4.51-8.58,6.57-17.83,6.2-27.74c-0.83-18.62-6.95-37.93-21.09-50.91c-14.09-12.93-31.4-21.09-50.91-21.09
					c-18.46,0-37.85,8.03-50.91,21.09c-7.02,6.52-11.98,14.25-14.89,23.17c-4.51,8.58-6.57,17.83-6.2,27.74
					c0.83,18.62,6.95,37.93,21.09,50.91C1578.25,714.61,1595.57,722.76,1615.08,722.76L1615.08,722.76z"/>
			</g>
		</g>
	</g>
</g>
<g id="Layer_6">
</g>
</svg>
